<svg width="87" height="22" viewBox="0 0 87 22" fill="none" xmlns="http://www.w3.org/2000/svg">
<path d="M19 21V18.7778C19 17.599 18.5259 16.4686 17.682 15.6351C16.8381 14.8016 15.6935 14.3333 14.5 14.3333H5.5C4.30653 14.3333 3.16193 14.8016 2.31802 15.6351C1.47411 16.4686 1 17.599 1 18.7778V21M14.5 5.44444C14.5 7.89904 12.4853 9.88889 10 9.88889C7.51472 9.88889 5.5 7.89904 5.5 5.44444C5.5 2.98985 7.51472 1 10 1C12.4853 1 14.5 2.98985 14.5 5.44444Z" stroke="white" stroke-width="2" stroke-linecap="round" stroke-linejoin="round"/>
<path d="M48 21V18.7778C48 17.599 47.5259 16.4686 46.682 15.6351C45.8381 14.8016 44.6935 14.3333 43.5 14.3333H34.5C33.3065 14.3333 32.1619 14.8016 31.318 15.6351C30.4741 16.4686 30 17.599 30 18.7778V21M43.5 5.44444C43.5 7.89904 41.4853 9.88889 39 9.88889C36.5147 9.88889 34.5 7.89904 34.5 5.44444C34.5 2.98985 36.5147 1 39 1C41.4853 1 43.5 2.98985 43.5 5.44444Z" stroke="white" stroke-width="2" stroke-linecap="round" stroke-linejoin="round"/>
<path d="M19 21V18.7778C19 17.599 18.5259 16.4686 17.682 15.6351C16.8381 14.8016 15.6935 14.3333 14.5 14.3333H5.5C4.30653 14.3333 3.16193 14.8016 2.31802 15.6351C1.47411 16.4686 1 17.599 1 18.7778V21M14.5 5.44444C14.5 7.89904 12.4853 9.88889 10 9.88889C7.51472 9.88889 5.5 7.89904 5.5 5.44444C5.5 2.98985 7.51472 1 10 1C12.4853 1 14.5 2.98985 14.5 5.44444Z" stroke="white" stroke-width="2" stroke-linecap="round" stroke-linejoin="round"/>
<path d="M58 8V14" stroke="white" stroke-width="2" stroke-linecap="round" stroke-linejoin="round"/>
<path d="M55 11H61" stroke="white" stroke-width="2" stroke-linecap="round" stroke-linejoin="round"/>
<path d="M48 21V18.7778C48 17.599 47.5259 16.4686 46.682 15.6351C45.8381 14.8016 44.6935 14.3333 43.5 14.3333H34.5C33.3065 14.3333 32.1619 14.8016 31.318 15.6351C30.4741 16.4686 30 17.599 30 18.7778V21M43.5 5.44444C43.5 7.89904 41.4853 9.88889 39 9.88889C36.5147 9.88889 34.5 7.89904 34.5 5.44444C34.5 2.98985 36.5147 1 39 1C41.4853 1 43.5 2.98985 43.5 5.44444Z" stroke="white" stroke-width="2" stroke-linecap="round" stroke-linejoin="round"/>
<path d="M86 21V18.7778C86 17.599 85.5259 16.4686 84.682 15.6351C83.8381 14.8016 82.6935 14.3333 81.5 14.3333H72.5C71.3065 14.3333 70.1619 14.8016 69.318 15.6351C68.4741 16.4686 68 17.599 68 18.7778V21M81.5 5.44444C81.5 7.89904 79.4853 9.88889 77 9.88889C74.5147 9.88889 72.5 7.89904 72.5 5.44444C72.5 2.98985 74.5147 1 77 1C79.4853 1 81.5 2.98985 81.5 5.44444Z" stroke="white" stroke-width="2" stroke-linecap="round" stroke-linejoin="round"/>
</svg>
