<svg width="58" height="28" viewBox="0 0 58 28" fill="none" xmlns="http://www.w3.org/2000/svg">
<path d="M8.118 15.808C8.734 15.9107 9.26933 16.1453 9.724 16.512C10.1933 16.864 10.5527 17.3187 10.802 17.876C11.0513 18.4187 11.176 19.0347 11.176 19.724C11.176 20.6333 10.9487 21.4253 10.494 22.1C10.054 22.7747 9.42333 23.2953 8.602 23.662C7.78067 24.0433 6.81267 24.234 5.698 24.234C4.58333 24.234 3.60067 24.036 2.75 23.64C1.89933 23.2587 1.21733 22.7013 0.704 21.968L2.178 20.296C2.53 20.824 2.98467 21.242 3.542 21.55C4.09933 21.8727 4.80333 22.034 5.654 22.034C6.60733 22.034 7.348 21.8287 7.876 21.418C8.404 21.0073 8.668 20.3913 8.668 19.57C8.668 18.7193 8.37467 18.052 7.788 17.568C7.216 17.084 6.35067 16.842 5.192 16.842H4.598V14.95H5.258C6.24067 14.95 6.996 14.7227 7.524 14.268C8.052 13.7987 8.316 13.212 8.316 12.508C8.316 12.0387 8.206 11.6573 7.986 11.364C7.78067 11.056 7.48733 10.8287 7.106 10.682C6.72467 10.5353 6.28467 10.462 5.786 10.462C5.038 10.462 4.378 10.6233 3.806 10.946C3.234 11.2687 2.77933 11.7307 2.442 12.332L0.924 10.682C1.21733 10.2127 1.62067 9.802 2.134 9.45C2.64733 9.098 3.234 8.82667 3.894 8.636C4.56867 8.43067 5.28 8.328 6.028 8.328C6.996 8.328 7.84667 8.48933 8.58 8.812C9.31333 9.13467 9.878 9.58933 10.274 10.176C10.6847 10.7627 10.89 11.452 10.89 12.244C10.89 12.816 10.78 13.3587 10.56 13.872C10.34 14.3707 10.0173 14.796 9.592 15.148C9.16667 15.4853 8.67533 15.7053 8.118 15.808ZM24.4602 14.554C24.4602 15.8447 24.2109 16.996 23.7122 18.008C23.2282 19.0053 22.5609 19.79 21.7102 20.362C20.8742 20.934 19.9136 21.22 18.8282 21.22C17.7576 21.22 16.7969 20.934 15.9462 20.362C15.0956 19.79 14.4209 19.0053 13.9222 18.008C13.4382 16.996 13.1962 15.8447 13.1962 14.554C13.1962 13.2633 13.4382 12.1193 13.9222 11.122C14.4209 10.11 15.0956 9.318 15.9462 8.746C16.7969 8.15933 17.7576 7.866 18.8282 7.866C19.9136 7.866 20.8742 8.15933 21.7102 8.746C22.5609 9.318 23.2282 10.11 23.7122 11.122C24.2109 12.1193 24.4602 13.2633 24.4602 14.554ZM21.9962 14.554C21.9962 13.674 21.8642 12.904 21.6002 12.244C21.3362 11.5693 20.9622 11.0487 20.4782 10.682C19.9942 10.3007 19.4442 10.11 18.8282 10.11C18.1976 10.11 17.6402 10.3007 17.1562 10.682C16.6722 11.0487 16.2909 11.5693 16.0122 12.244C15.7482 12.904 15.6162 13.674 15.6162 14.554C15.6162 15.434 15.7482 16.204 16.0122 16.864C16.2909 17.524 16.6722 18.0447 17.1562 18.426C17.6402 18.7927 18.1976 18.976 18.8282 18.976C19.4442 18.976 19.9869 18.7927 20.4562 18.426C20.9402 18.0447 21.3142 17.524 21.5782 16.864C21.8569 16.204 21.9962 15.434 21.9962 14.554Z" fill="white"/>
<path d="M31.512 20.5V10.888H33.87L37.74 17.71H36.804L40.872 10.888H42.978L42.996 20.5H40.962V13.3L41.322 13.534L37.722 19.492H36.75L33.132 13.372L33.564 13.264V20.5H31.512ZM45.294 14.614V13.606L48.516 10.798C48.912 10.438 49.17 10.156 49.29 9.952C49.422 9.736 49.488 9.532 49.488 9.34C49.488 9.064 49.362 8.836 49.11 8.656C48.87 8.464 48.48 8.368 47.94 8.368C47.532 8.368 47.166 8.434 46.842 8.566C46.518 8.698 46.26 8.896 46.068 9.16L44.934 8.35C45.234 7.942 45.648 7.618 46.176 7.378C46.704 7.138 47.334 7.018 48.066 7.018C49.038 7.018 49.788 7.228 50.316 7.648C50.844 8.068 51.108 8.596 51.108 9.232C51.108 9.592 51.018 9.94 50.838 10.276C50.67 10.612 50.298 11.032 49.722 11.536L47.004 13.912L46.626 13.336H51.414V14.614H45.294Z" fill="white"/>
</svg>
