<svg width="59" height="58" viewBox="0 0 59 58" fill="none" xmlns="http://www.w3.org/2000/svg">
<mask id="mask0_642_4048" style="mask-type:alpha" maskUnits="userSpaceOnUse" x="0" y="0" width="59" height="58">
<rect x="0.5" width="58" height="58" fill="#D9D9D9"/>
</mask>
<g mask="url(#mask0_642_4048)">
<path d="M16.8743 33.8932H42.1587C42.7226 33.8932 43.1858 33.7169 43.5483 33.3645C43.9108 33.0121 44.0921 32.5439 44.0921 31.9598V27.2171C44.0921 26.6532 43.9108 26.19 43.5483 25.8275C43.1858 25.465 42.7226 25.2838 42.1587 25.2838H25.3629V14.4088H19.8398C18.4872 14.4088 17.3325 14.8909 16.3759 15.8552C15.4193 16.8195 14.941 17.9786 14.941 19.3327V31.9598C14.941 32.5439 15.1172 33.0121 15.4697 33.3645C15.8221 33.7169 16.2903 33.8932 16.8743 33.8932ZM29.509 45.7348C30.6519 45.7348 31.752 45.6543 32.8092 45.4932C33.8665 45.332 34.9289 45.0887 35.9962 44.7633V35.4338H23.0368V44.7633C24.0841 45.0887 25.1388 45.332 26.2012 45.4932C27.2635 45.6543 28.3661 45.7348 29.509 45.7348ZM29.5014 47.2755C26.7839 47.2755 24.1662 46.8022 21.6482 45.8557C19.1302 44.9091 16.8542 43.5598 14.8202 41.8077L15.9077 40.69C16.7334 41.4352 17.6145 42.0947 18.5509 42.6687C19.4874 43.2426 20.4691 43.7411 21.4962 44.164V35.4338H16.8743C15.8687 35.4338 15.0382 35.1062 14.3831 34.451C13.728 33.7959 13.4004 32.9655 13.4004 31.9598V19.3327C13.4004 17.5618 14.0301 16.0416 15.2894 14.7723C16.5487 13.5029 18.0638 12.8682 19.8348 12.8682H26.9035V23.7432H42.1587C43.143 23.7432 43.9681 24.0761 44.6339 24.7419C45.2998 25.4077 45.6327 26.2328 45.6327 27.2171V31.9598C45.6327 32.9655 45.2998 33.7959 44.6339 34.451C43.9681 35.1062 43.143 35.4338 42.1587 35.4338H37.5368V44.164C38.5438 43.7411 39.5155 43.2426 40.452 42.6687C41.3884 42.0947 42.2695 41.4352 43.0952 40.69L44.2129 41.8077C42.1587 43.5598 39.8726 44.9091 37.3546 45.8557C34.8367 46.8022 32.2189 47.2755 29.5014 47.2755Z" fill="white"/>
</g>
</svg>
