<svg width="47" height="47" viewBox="0 0 47 47" fill="none" xmlns="http://www.w3.org/2000/svg">
<mask id="mask0_747_7059" style="mask-type:alpha" maskUnits="userSpaceOnUse" x="0" y="0" width="47" height="47">
<rect width="46.9999" height="46.9999" fill="#D9D9D9"/>
</mask>
<g mask="url(#mask0_747_7059)">
<path d="M5.13477 36.539V34.8292C5.96076 34.725 6.67599 34.527 7.28046 34.2351C7.8849 33.9433 8.49366 33.6462 9.10675 33.3439C9.71983 33.0416 10.3914 32.7742 11.1216 32.5417C11.8517 32.3092 12.7395 32.193 13.7849 32.193C14.8497 32.193 15.7681 32.3299 16.5401 32.6037C17.3122 32.8775 18.056 33.1866 18.7715 33.531C19.487 33.8755 20.2109 34.1905 20.9432 34.4761C21.6754 34.7617 22.527 34.9045 23.4979 34.9045C24.4569 34.9045 25.3024 34.7617 26.0343 34.4761C26.7661 34.1905 27.4895 33.8773 28.2044 33.5365C28.9193 33.1957 29.6672 32.8866 30.448 32.6092C31.2289 32.3317 32.142 32.193 33.1873 32.193C34.2522 32.193 35.1461 32.3092 35.869 32.5417C36.5919 32.7742 37.2604 33.0416 37.8744 33.3439C38.4884 33.6462 39.1008 33.9433 39.7115 34.2351C40.3222 34.527 41.0406 34.725 41.8666 34.8292V36.539C40.9728 36.4599 40.1954 36.2741 39.5343 35.9816C38.8732 35.6891 38.2236 35.3916 37.5854 35.0891C36.9472 34.7865 36.2908 34.5132 35.6163 34.269C34.9418 34.0249 34.1337 33.9028 33.192 33.9028C32.2703 33.9028 31.4476 34.0397 30.7239 34.3134C30.0002 34.5872 29.2828 34.8963 28.5716 35.2408C27.8605 35.5853 27.1079 35.9003 26.3138 36.1859C25.5197 36.4715 24.5825 36.6143 23.5024 36.6143C22.4097 36.6143 21.4648 36.4715 20.6677 36.1859C19.8706 35.9003 19.1151 35.5871 18.4014 35.2463C17.6877 34.9055 16.9758 34.5964 16.2658 34.3189C15.5557 34.0415 14.7314 33.9028 13.7928 33.9028C12.874 33.9028 12.0703 34.0258 11.3817 34.2718C10.6931 34.5179 10.03 34.7925 9.39222 35.0957C8.75452 35.3988 8.1018 35.6964 7.43404 35.9882C6.76628 36.2801 5.99986 36.4637 5.13477 36.539ZM5.13477 29.2461V27.5363C5.96076 27.4484 6.67514 27.2583 7.27791 26.9657C7.88065 26.6733 8.48824 26.3758 9.10068 26.0732C9.71308 25.7707 10.3855 25.4995 11.118 25.2598C11.8505 25.02 12.7395 24.9001 13.7849 24.9001C14.8497 24.9001 15.7681 25.042 16.5401 25.3256C17.3122 25.6093 18.056 25.9225 18.7715 26.2653C19.487 26.608 20.2109 26.9221 20.9432 27.2077C21.6754 27.4933 22.527 27.6361 23.4979 27.6361C24.4569 27.6361 25.3024 27.4933 26.0343 27.2077C26.7661 26.9221 27.4895 26.6089 28.2044 26.2681C28.9193 25.9273 29.6672 25.6172 30.448 25.3379C31.2289 25.0586 32.142 24.9126 33.1873 24.9001C34.2522 24.9126 35.1461 25.0338 35.869 25.2637C36.5919 25.4935 37.2604 25.7619 37.8744 26.0687C38.4884 26.3755 39.1008 26.6748 39.7115 26.9667C40.3222 27.2586 41.0406 27.4484 41.8666 27.5363V29.2461C40.9728 29.1708 40.1931 28.99 39.5276 28.7038C38.862 28.4176 38.2114 28.1232 37.5758 27.8207C36.9402 27.5181 36.2854 27.2438 35.6112 26.9978C34.937 26.7517 34.1339 26.6224 33.2019 26.6099C32.2824 26.6224 31.4608 26.7684 30.7371 27.0477C30.0134 27.327 29.2924 27.6367 28.5742 27.9769C27.8559 28.3171 27.0996 28.6304 26.3051 28.9166C25.5107 29.2028 24.5734 29.3459 23.4933 29.3459C22.4006 29.3459 21.4572 29.2031 20.6631 28.9175C19.869 28.6319 19.1151 28.3178 18.4014 27.9751C17.6877 27.6324 16.9758 27.3192 16.2658 27.0355C15.5557 26.7517 14.7314 26.6099 13.7928 26.6099C12.874 26.6099 12.0703 26.736 11.3817 26.9884C10.6931 27.2407 10.03 27.5184 9.39222 27.8216C8.75452 28.1248 8.1018 28.4192 7.43404 28.7047C6.76628 28.9903 5.99986 29.1708 5.13477 29.2461ZM5.13477 21.9777V20.2679C5.96076 20.18 6.67514 19.9898 7.27791 19.6973C7.88065 19.4048 8.48824 19.1073 9.10068 18.8048C9.71308 18.5022 10.3855 18.2311 11.118 17.9913C11.8505 17.7516 12.7395 17.6317 13.7849 17.6317C14.8497 17.6317 15.7681 17.7735 16.5401 18.0572C17.3122 18.3409 18.056 18.6542 18.7715 18.9969C19.487 19.3396 20.2109 19.6537 20.9432 19.9393C21.6754 20.2249 22.527 20.3677 23.4979 20.3677C24.4569 20.3677 25.3024 20.2249 26.0343 19.9393C26.7661 19.6537 27.4895 19.3405 28.2044 18.9997C28.9193 18.6588 29.6672 18.3488 30.448 18.0695C31.2289 17.7902 32.142 17.6442 33.1873 17.6317C34.2522 17.6442 35.1461 17.7654 35.869 17.9953C36.5919 18.2251 37.2604 18.4934 37.8744 18.8003C38.4884 19.1071 39.1008 19.4064 39.7115 19.6983C40.3222 19.9902 41.0406 20.18 41.8666 20.2679V21.9777C40.9728 21.9024 40.1954 21.7216 39.5343 21.4354C38.8732 21.1492 38.2236 20.8548 37.5854 20.5522C36.9472 20.2497 36.2908 19.9723 35.6163 19.7199C34.9418 19.4676 34.1337 19.3415 33.192 19.3415C32.2703 19.3415 31.4476 19.4833 30.7239 19.767C30.0002 20.0507 29.2828 20.3639 28.5716 20.7066C27.8605 21.0493 27.1079 21.3635 26.3138 21.6491C25.5197 21.9347 24.5825 22.0775 23.5024 22.0775C22.4097 22.0775 21.4648 21.9347 20.6677 21.6491C19.8706 21.3635 19.1151 21.0493 18.4014 20.7066C17.6877 20.3639 16.9758 20.0507 16.2658 19.767C15.5557 19.4833 14.7314 19.3415 13.7928 19.3415C12.874 19.3415 12.0703 19.4676 11.3817 19.7199C10.6931 19.9723 10.03 20.25 9.39222 20.5532C8.75452 20.8564 8.1018 21.1507 7.43404 21.4363C6.76628 21.7219 5.99986 21.9024 5.13477 21.9777ZM5.13477 14.7093V12.9995C5.96076 12.9116 6.67599 12.7217 7.28046 12.4299C7.8849 12.138 8.49247 11.8405 9.10317 11.5373C9.71391 11.2342 10.3855 10.9627 11.118 10.7229C11.8505 10.4832 12.7395 10.3633 13.7849 10.3633C14.8497 10.3633 15.7681 10.5051 16.5401 10.7888C17.3122 11.0725 18.056 11.3857 18.7715 11.7284C19.487 12.0711 20.2109 12.3843 20.9432 12.668C21.6754 12.9518 22.527 13.0873 23.4979 13.0748C24.4569 13.0873 25.3024 12.9518 26.0343 12.668C26.7661 12.3843 27.4883 12.0711 28.2008 11.7284C28.9132 11.3857 29.6616 11.0725 30.4461 10.7888C31.2306 10.5051 32.1483 10.3633 33.1991 10.3633C34.2601 10.3633 35.1515 10.4813 35.8734 10.7174C36.5952 10.9536 37.2627 11.225 37.8758 11.5318C38.4889 11.8387 39.1008 12.138 39.7115 12.4299C40.3222 12.7217 41.0406 12.9116 41.8666 12.9995V14.7093C40.9728 14.6339 40.1954 14.4532 39.5343 14.1669C38.8732 13.8807 38.2236 13.5864 37.5854 13.2838C36.9472 12.9813 36.2908 12.7038 35.6163 12.4515C34.9418 12.1992 34.1337 12.073 33.192 12.073C32.2703 12.073 31.4476 12.2149 30.7239 12.4986C30.0002 12.7823 29.2828 13.0955 28.5716 13.4382C27.8605 13.7809 27.1079 14.0941 26.3138 14.3779C25.5197 14.6616 24.5825 14.7971 23.5024 14.7846C22.4097 14.7971 21.4648 14.6616 20.6677 14.3779C19.8706 14.0941 19.1151 13.7809 18.4014 13.4382C17.6877 13.0955 16.9758 12.7823 16.2658 12.4986C15.5557 12.2149 14.7314 12.073 13.7928 12.073C12.874 12.073 12.0703 12.1992 11.3817 12.4515C10.6931 12.7038 10.03 12.9816 9.39222 13.2848C8.75452 13.5879 8.1018 13.8823 7.43404 14.1679C6.76628 14.4535 5.99986 14.6339 5.13477 14.7093Z" fill="white"/>
</g>
</svg>
