<svg width="48" height="47" viewBox="0 0 48 47" fill="none" xmlns="http://www.w3.org/2000/svg">
<mask id="mask0_642_4038" style="mask-type:alpha" maskUnits="userSpaceOnUse" x="0" y="0" width="48" height="47">
<rect x="0.794922" y="0.29541" width="46.409" height="46.409" fill="#D9D9D9"/>
</mask>
<g mask="url(#mask0_642_4038)">
<path d="M16.9894 40.1054V32.4189H5.82227L13.5813 20.9133H9.76219L18.198 8.82764L23.9991 17.1184L29.8002 8.82764L38.236 20.9133H34.417L42.176 32.4189H31.0088V40.1054H28.5917V32.4189H19.4066V40.1054H16.9894ZM29.7036 31.1861H39.8313L32.0965 19.6806H35.8431L29.8002 11.0514L24.7968 18.2061L26.6338 20.9133H22.8147L29.7036 31.1861ZM8.16689 31.1861H28.2291L20.4943 19.6806H24.2408L18.198 11.0514L12.1552 19.6806H15.9259L8.16689 31.1861ZM8.16689 31.1861H15.9259H12.1552H24.2408H20.4943H28.2291H8.16689ZM29.7036 31.1861H22.8147H26.6338H24.7968H35.8431H32.0965H39.8313H29.7036Z" fill="white"/>
</g>
</svg>
