<svg width="74" height="22" viewBox="0 0 74 22" fill="none" xmlns="http://www.w3.org/2000/svg">
<path d="M46 21V18.7778C46 17.599 45.5259 16.4686 44.682 15.6351C43.8381 14.8016 42.6935 14.3333 41.5 14.3333H32.5C31.3065 14.3333 30.1619 14.8016 29.318 15.6351C28.4741 16.4686 28 17.599 28 18.7778V21M41.5 5.44444C41.5 7.89904 39.4853 9.88889 37 9.88889C34.5147 9.88889 32.5 7.89904 32.5 5.44444C32.5 2.98985 34.5147 1 37 1C39.4853 1 41.5 2.98985 41.5 5.44444Z" stroke="white" stroke-width="2" stroke-linecap="round" stroke-linejoin="round"/>
<path d="M73 21V18.7778C73 17.599 72.5259 16.4686 71.682 15.6351C70.8381 14.8016 69.6935 14.3333 68.5 14.3333H59.5C58.3065 14.3333 57.1619 14.8016 56.318 15.6351C55.4741 16.4686 55 17.599 55 18.7778V21M68.5 5.44444C68.5 7.89904 66.4853 9.88889 64 9.88889C61.5147 9.88889 59.5 7.89904 59.5 5.44444C59.5 2.98985 61.5147 1 64 1C66.4853 1 68.5 2.98985 68.5 5.44444Z" stroke="white" stroke-width="2" stroke-linecap="round" stroke-linejoin="round"/>
<path d="M19 21V18.7778C19 17.599 18.5259 16.4686 17.682 15.6351C16.8381 14.8016 15.6935 14.3333 14.5 14.3333H5.5C4.30653 14.3333 3.16193 14.8016 2.31802 15.6351C1.47411 16.4686 1 17.599 1 18.7778V21M14.5 5.44444C14.5 7.89904 12.4853 9.88889 10 9.88889C7.51472 9.88889 5.5 7.89904 5.5 5.44444C5.5 2.98985 7.51472 1 10 1C12.4853 1 14.5 2.98985 14.5 5.44444Z" stroke="white" stroke-width="2" stroke-linecap="round" stroke-linejoin="round"/>
<path d="M73 21V18.7778C73 17.599 72.5259 16.4686 71.682 15.6351C70.8381 14.8016 69.6935 14.3333 68.5 14.3333H59.5C58.3065 14.3333 57.1619 14.8016 56.318 15.6351C55.4741 16.4686 55 17.599 55 18.7778V21M68.5 5.44444C68.5 7.89904 66.4853 9.88889 64 9.88889C61.5147 9.88889 59.5 7.89904 59.5 5.44444C59.5 2.98985 61.5147 1 64 1C66.4853 1 68.5 2.98985 68.5 5.44444Z" stroke="white" stroke-width="2" stroke-linecap="round" stroke-linejoin="round"/>
<path d="M73 21V18.7778C73 17.599 72.5259 16.4686 71.682 15.6351C70.8381 14.8016 69.6935 14.3333 68.5 14.3333H59.5C58.3065 14.3333 57.1619 14.8016 56.318 15.6351C55.4741 16.4686 55 17.599 55 18.7778V21M68.5 5.44444C68.5 7.89904 66.4853 9.88889 64 9.88889C61.5147 9.88889 59.5 7.89904 59.5 5.44444C59.5 2.98985 61.5147 1 64 1C66.4853 1 68.5 2.98985 68.5 5.44444Z" stroke="white" stroke-width="2" stroke-linecap="round" stroke-linejoin="round"/>
</svg>
