<svg width="48" height="47" viewBox="0 0 48 47" fill="none" xmlns="http://www.w3.org/2000/svg">
<mask id="mask0_753_9165" style="mask-type:alpha" maskUnits="userSpaceOnUse" x="0" y="0" width="48" height="47">
<rect x="0.5" width="46.9999" height="46.9999" fill="#D9D9D9"/>
</mask>
<g mask="url(#mask0_753_9165)">
<path d="M5.63281 36.539V34.8292C6.4588 34.725 7.17403 34.527 7.7785 34.2351C8.38294 33.9433 8.99171 33.6462 9.60479 33.3439C10.2179 33.0416 10.8895 32.7742 11.6196 32.5417C12.3498 32.3092 13.2375 32.193 14.2829 32.193C15.3477 32.193 16.2661 32.3299 17.0382 32.6037C17.8102 32.8775 18.554 33.1866 19.2695 33.531C19.9851 33.8755 20.709 34.1905 21.4412 34.4761C22.1735 34.7617 23.025 34.9045 23.9959 34.9045C24.955 34.9045 25.8004 34.7617 26.5323 34.4761C27.2642 34.1905 27.9876 33.8773 28.7025 33.5365C29.4174 33.1957 30.1653 32.8866 30.9461 32.6092C31.7269 32.3317 32.64 32.193 33.6854 32.193C34.7502 32.193 35.6441 32.3092 36.367 32.5417C37.0899 32.7742 37.7584 33.0416 38.3724 33.3439C38.9864 33.6462 39.5988 33.9433 40.2096 34.2351C40.8203 34.527 41.5386 34.725 42.3647 34.8292V36.539C41.4708 36.4599 40.6934 36.2741 40.0323 35.9816C39.3713 35.6891 38.7216 35.3916 38.0834 35.0891C37.4452 34.7865 36.7889 34.5132 36.1144 34.269C35.4398 34.0249 34.6318 33.9028 33.6901 33.9028C32.7684 33.9028 31.9457 34.0397 31.222 34.3134C30.4983 34.5872 29.7808 34.8963 29.0697 35.2408C28.3585 35.5853 27.6059 35.9003 26.8118 36.1859C26.0177 36.4715 25.0806 36.6143 24.0005 36.6143C22.9078 36.6143 21.9629 36.4715 21.1657 36.1859C20.3686 35.9003 19.6132 35.5871 18.8995 35.2463C18.1858 34.9055 17.4739 34.5964 16.7638 34.3189C16.0538 34.0415 15.2294 33.9028 14.2908 33.9028C13.372 33.9028 12.5683 34.0258 11.8797 34.2718C11.1912 34.5179 10.528 34.7925 9.89027 35.0957C9.25257 35.3988 8.59984 35.6964 7.93209 35.9882C7.26433 36.2801 6.4979 36.4637 5.63281 36.539ZM5.63281 29.2461V27.5363C6.4588 27.4484 7.17318 27.2583 7.77596 26.9657C8.3787 26.6733 8.98629 26.3758 9.59872 26.0732C10.2111 25.7707 10.8836 25.4995 11.616 25.2598C12.3486 25.02 13.2375 24.9001 14.2829 24.9001C15.3477 24.9001 16.2661 25.042 17.0382 25.3256C17.8102 25.6093 18.554 25.9225 19.2695 26.2653C19.9851 26.608 20.709 26.9221 21.4412 27.2077C22.1735 27.4933 23.025 27.6361 23.9959 27.6361C24.955 27.6361 25.8004 27.4933 26.5323 27.2077C27.2642 26.9221 27.9876 26.6089 28.7025 26.2681C29.4174 25.9273 30.1653 25.6172 30.9461 25.3379C31.7269 25.0586 32.64 24.9126 33.6854 24.9001C34.7502 24.9126 35.6441 25.0338 36.367 25.2637C37.0899 25.4935 37.7584 25.7619 38.3724 26.0687C38.9864 26.3755 39.5988 26.6748 40.2096 26.9667C40.8203 27.2586 41.5386 27.4484 42.3647 27.5363V29.2461C41.4708 29.1708 40.6912 28.99 40.0256 28.7038C39.3601 28.4176 38.7095 28.1232 38.0739 27.8207C37.4383 27.5181 36.7834 27.2438 36.1092 26.9978C35.4351 26.7517 34.632 26.6224 33.6999 26.6099C32.7804 26.6224 31.9588 26.7684 31.2351 27.0477C30.5114 27.327 29.7905 27.6367 29.0722 27.9769C28.354 28.3171 27.5976 28.6304 26.8032 28.9166C26.0088 29.2028 25.0715 29.3459 23.9914 29.3459C22.8987 29.3459 21.9553 29.2031 21.1612 28.9175C20.3671 28.6319 19.6132 28.3178 18.8995 27.9751C18.1858 27.6324 17.4739 27.3192 16.7638 27.0355C16.0538 26.7517 15.2294 26.6099 14.2908 26.6099C13.372 26.6099 12.5683 26.736 11.8797 26.9884C11.1912 27.2407 10.528 27.5184 9.89027 27.8216C9.25257 28.1248 8.59984 28.4192 7.93209 28.7047C7.26433 28.9903 6.4979 29.1708 5.63281 29.2461ZM5.63281 21.9777V20.2679C6.4588 20.18 7.17318 19.9898 7.77596 19.6973C8.3787 19.4048 8.98629 19.1073 9.59872 18.8048C10.2111 18.5022 10.8836 18.2311 11.616 17.9913C12.3486 17.7516 13.2375 17.6317 14.2829 17.6317C15.3477 17.6317 16.2661 17.7735 17.0382 18.0572C17.8102 18.3409 18.554 18.6542 19.2695 18.9969C19.9851 19.3396 20.709 19.6537 21.4412 19.9393C22.1735 20.2249 23.025 20.3677 23.9959 20.3677C24.955 20.3677 25.8004 20.2249 26.5323 19.9393C27.2642 19.6537 27.9876 19.3405 28.7025 18.9997C29.4174 18.6588 30.1653 18.3488 30.9461 18.0695C31.7269 17.7902 32.64 17.6442 33.6854 17.6317C34.7502 17.6442 35.6441 17.7654 36.367 17.9953C37.0899 18.2251 37.7584 18.4934 38.3724 18.8003C38.9864 19.1071 39.5988 19.4064 40.2096 19.6983C40.8203 19.9902 41.5386 20.18 42.3647 20.2679V21.9777C41.4708 21.9024 40.6934 21.7216 40.0323 21.4354C39.3713 21.1492 38.7216 20.8548 38.0834 20.5522C37.4452 20.2497 36.7889 19.9723 36.1144 19.7199C35.4398 19.4676 34.6318 19.3415 33.6901 19.3415C32.7684 19.3415 31.9457 19.4833 31.222 19.767C30.4983 20.0507 29.7808 20.3639 29.0697 20.7066C28.3585 21.0493 27.6059 21.3635 26.8118 21.6491C26.0177 21.9347 25.0806 22.0775 24.0005 22.0775C22.9078 22.0775 21.9629 21.9347 21.1657 21.6491C20.3686 21.3635 19.6132 21.0493 18.8995 20.7066C18.1858 20.3639 17.4739 20.0507 16.7638 19.767C16.0538 19.4833 15.2294 19.3415 14.2908 19.3415C13.372 19.3415 12.5683 19.4676 11.8797 19.7199C11.1912 19.9723 10.528 20.25 9.89027 20.5532C9.25257 20.8564 8.59984 21.1507 7.93209 21.4363C7.26433 21.7219 6.4979 21.9024 5.63281 21.9777ZM5.63281 14.7093V12.9995C6.4588 12.9116 7.17403 12.7217 7.7785 12.4299C8.38294 12.138 8.99052 11.8405 9.60122 11.5373C10.212 11.2342 10.8836 10.9627 11.616 10.7229C12.3486 10.4832 13.2375 10.3633 14.2829 10.3633C15.3477 10.3633 16.2661 10.5051 17.0382 10.7888C17.8102 11.0725 18.554 11.3857 19.2695 11.7284C19.9851 12.0711 20.709 12.3843 21.4412 12.668C22.1735 12.9518 23.025 13.0873 23.9959 13.0748C24.955 13.0873 25.8004 12.9518 26.5323 12.668C27.2642 12.3843 27.9863 12.0711 28.6988 11.7284C29.4112 11.3857 30.1597 11.0725 30.9442 10.7888C31.7287 10.5051 32.6463 10.3633 33.6971 10.3633C34.7582 10.3633 35.6496 10.4813 36.3714 10.7174C37.0932 10.9536 37.7607 11.225 38.3738 11.5318C38.9869 11.8387 39.5988 12.138 40.2096 12.4299C40.8203 12.7217 41.5386 12.9116 42.3647 12.9995V14.7093C41.4708 14.6339 40.6934 14.4532 40.0323 14.1669C39.3713 13.8807 38.7216 13.5864 38.0834 13.2838C37.4452 12.9813 36.7889 12.7038 36.1144 12.4515C35.4398 12.1992 34.6318 12.073 33.6901 12.073C32.7684 12.073 31.9457 12.2149 31.222 12.4986C30.4983 12.7823 29.7808 13.0955 29.0697 13.4382C28.3585 13.7809 27.6059 14.0941 26.8118 14.3779C26.0177 14.6616 25.0806 14.7971 24.0005 14.7846C22.9078 14.7971 21.9629 14.6616 21.1657 14.3779C20.3686 14.0941 19.6132 13.7809 18.8995 13.4382C18.1858 13.0955 17.4739 12.7823 16.7638 12.4986C16.0538 12.2149 15.2294 12.073 14.2908 12.073C13.372 12.073 12.5683 12.1992 11.8797 12.4515C11.1912 12.7038 10.528 12.9816 9.89027 13.2848C9.25257 13.5879 8.59984 13.8823 7.93209 14.1679C7.26433 14.4535 6.4979 14.6339 5.63281 14.7093Z" fill="white"/>
</g>
</svg>
