<svg width="53" height="28" viewBox="0 0 53 28" fill="none" xmlns="http://www.w3.org/2000/svg">
<path d="M7.238 23.794V20.296H0.484V18.14L8.008 8.438H9.658V18.096H11.594V20.296H9.658V23.794H7.238ZM2.948 18.096H7.502V12.134L2.948 18.096ZM24.804 14.554C24.804 15.8447 24.5546 16.996 24.056 18.008C23.572 19.0053 22.9046 19.79 22.054 20.362C21.218 20.934 20.2573 21.22 19.172 21.22C18.1013 21.22 17.1406 20.934 16.29 20.362C15.4393 19.79 14.7646 19.0053 14.266 18.008C13.782 16.996 13.54 15.8447 13.54 14.554C13.54 13.2633 13.782 12.1193 14.266 11.122C14.7646 10.11 15.4393 9.318 16.29 8.746C17.1406 8.15933 18.1013 7.866 19.172 7.866C20.2573 7.866 21.218 8.15933 22.054 8.746C22.9046 9.318 23.572 10.11 24.056 11.122C24.5546 12.1193 24.804 13.2633 24.804 14.554ZM22.34 14.554C22.34 13.674 22.208 12.904 21.944 12.244C21.68 11.5693 21.306 11.0487 20.822 10.682C20.338 10.3007 19.788 10.11 19.172 10.11C18.5413 10.11 17.984 10.3007 17.5 10.682C17.016 11.0487 16.6346 11.5693 16.356 12.244C16.092 12.904 15.96 13.674 15.96 14.554C15.96 15.434 16.092 16.204 16.356 16.864C16.6346 17.524 17.016 18.0447 17.5 18.426C17.984 18.7927 18.5413 18.976 19.172 18.976C19.788 18.976 20.3306 18.7927 20.8 18.426C21.284 18.0447 21.658 17.524 21.922 16.864C22.2006 16.204 22.34 15.434 22.34 14.554Z" fill="white"/>
<path d="M31.512 20.5V10.888H33.87L37.74 17.71H36.804L40.872 10.888H42.978L42.996 20.5H40.962V13.3L41.322 13.534L37.722 19.492H36.75L33.132 13.372L33.564 13.264V20.5H31.512ZM45.294 14.614V13.606L48.516 10.798C48.912 10.438 49.17 10.156 49.29 9.952C49.422 9.736 49.488 9.532 49.488 9.34C49.488 9.064 49.362 8.836 49.11 8.656C48.87 8.464 48.48 8.368 47.94 8.368C47.532 8.368 47.166 8.434 46.842 8.566C46.518 8.698 46.26 8.896 46.068 9.16L44.934 8.35C45.234 7.942 45.648 7.618 46.176 7.378C46.704 7.138 47.334 7.018 48.066 7.018C49.038 7.018 49.788 7.228 50.316 7.648C50.844 8.068 51.108 8.596 51.108 9.232C51.108 9.592 51.018 9.94 50.838 10.276C50.67 10.612 50.298 11.032 49.722 11.536L47.004 13.912L46.626 13.336H51.414V14.614H45.294Z" fill="white"/>
</svg>
