<svg width="85" height="23" viewBox="0 0 85 23" fill="none" xmlns="http://www.w3.org/2000/svg">
<path d="M46 21.5V19.2778C46 18.099 45.5259 16.9686 44.682 16.1351C43.8381 15.3016 42.6935 14.8333 41.5 14.8333H32.5C31.3065 14.8333 30.1619 15.3016 29.318 16.1351C28.4741 16.9686 28 18.099 28 19.2778V21.5M41.5 5.94444C41.5 8.39904 39.4853 10.3889 37 10.3889C34.5147 10.3889 32.5 8.39904 32.5 5.94444C32.5 3.48985 34.5147 1.5 37 1.5C39.4853 1.5 41.5 3.48985 41.5 5.94444Z" stroke="white" stroke-width="2" stroke-linecap="round" stroke-linejoin="round"/>
<path d="M19 21.5V19.2778C19 18.099 18.5259 16.9686 17.682 16.1351C16.8381 15.3016 15.6935 14.8333 14.5 14.8333H5.5C4.30653 14.8333 3.16193 15.3016 2.31802 16.1351C1.47411 16.9686 1 18.099 1 19.2778V21.5M14.5 5.94444C14.5 8.39904 12.4853 10.3889 10 10.3889C7.51472 10.3889 5.5 8.39904 5.5 5.94444C5.5 3.48985 7.51472 1.5 10 1.5C12.4853 1.5 14.5 3.48985 14.5 5.94444Z" stroke="white" stroke-width="2" stroke-linecap="round" stroke-linejoin="round"/>
<path d="M56 8.5V14.5" stroke="white" stroke-width="2" stroke-linecap="round" stroke-linejoin="round"/>
<path d="M53 11.5H59" stroke="white" stroke-width="2" stroke-linecap="round" stroke-linejoin="round"/>
<path d="M84 21.5V19.2778C84 18.099 83.5259 16.9686 82.682 16.1351C81.8381 15.3016 80.6935 14.8333 79.5 14.8333H70.5C69.3065 14.8333 68.1619 15.3016 67.318 16.1351C66.4741 16.9686 66 18.099 66 19.2778V21.5M79.5 5.94444C79.5 8.39904 77.4853 10.3889 75 10.3889C72.5147 10.3889 70.5 8.39904 70.5 5.94444C70.5 3.48985 72.5147 1.5 75 1.5C77.4853 1.5 79.5 3.48985 79.5 5.94444Z" stroke="white" stroke-width="2" stroke-linecap="round" stroke-linejoin="round"/>
</svg>
