<svg width="58" height="27" viewBox="0 0 58 27" fill="none" xmlns="http://www.w3.org/2000/svg">
<path d="M0.88 20.5C0.88 19.884 0.931333 19.3193 1.034 18.806C1.13667 18.278 1.31267 17.7793 1.562 17.31C1.826 16.8407 2.18533 16.4007 2.64 15.99C3.10933 15.5647 3.70333 15.1613 4.422 14.78C4.93533 14.4867 5.41933 14.23 5.874 14.01C6.32867 13.7753 6.732 13.548 7.084 13.328C7.436 13.0933 7.70733 12.844 7.898 12.58C8.10333 12.316 8.206 12.0153 8.206 11.678C8.206 11.3553 8.118 11.0547 7.942 10.776C7.766 10.4973 7.502 10.2773 7.15 10.116C6.798 9.94 6.37267 9.852 5.874 9.852C5.478 9.852 5.11133 9.90333 4.774 10.006C4.45133 10.1087 4.15067 10.248 3.872 10.424C3.608 10.5853 3.366 10.7687 3.146 10.974C2.926 11.1647 2.73533 11.3553 2.574 11.546L1.056 9.808C1.20267 9.632 1.43 9.434 1.738 9.214C2.06067 8.97933 2.442 8.752 2.882 8.532C3.33667 8.29733 3.85 8.10667 4.422 7.96C4.994 7.79867 5.61733 7.718 6.292 7.718C7.24533 7.718 8.05933 7.87933 8.734 8.202C9.40867 8.51 9.922 8.94267 10.274 9.5C10.6407 10.0427 10.824 10.6587 10.824 11.348C10.824 11.8907 10.714 12.3673 10.494 12.778C10.2887 13.1887 10.0173 13.5553 9.68 13.878C9.34267 14.186 8.98333 14.4573 8.602 14.692C8.23533 14.912 7.89067 15.11 7.568 15.286C6.996 15.5647 6.49733 15.8213 6.072 16.056C5.66133 16.2907 5.30933 16.5253 5.016 16.76C4.72267 16.98 4.48067 17.2147 4.29 17.464C4.09933 17.6987 3.938 17.9847 3.806 18.322H11.066V20.5H0.88ZM24.4822 15.308C24.4822 14.3253 24.2402 13.4453 23.7562 12.668C23.2869 11.876 22.6416 11.2453 21.8202 10.776C21.0136 10.3067 20.0969 10.072 19.0702 10.072C18.5276 10.072 18.0142 10.16 17.5302 10.336C17.0462 10.512 16.6209 10.7613 16.2542 11.084C15.9022 11.392 15.6162 11.766 15.3962 12.206C15.4109 11.0767 15.5649 10.116 15.8582 9.324C16.1662 8.532 16.5916 7.93067 17.1342 7.52C17.6916 7.09467 18.3296 6.882 19.0482 6.882C19.7669 6.882 20.4196 7.06533 21.0062 7.432C21.6076 7.784 22.0769 8.268 22.4142 8.884L23.8442 7.388C23.3309 6.56667 22.6562 5.92867 21.8202 5.474C20.9989 5.00467 20.0896 4.77 19.0922 4.77C17.8896 4.77 16.8409 5.10733 15.9462 5.782C15.0516 6.45667 14.3549 7.46133 13.8562 8.796C13.3722 10.1307 13.1302 11.7953 13.1302 13.79C13.1302 15.2273 13.3649 16.4667 13.8342 17.508C14.3182 18.5493 14.9856 19.3487 15.8362 19.906C16.7016 20.4487 17.7062 20.72 18.8502 20.72C19.9062 20.72 20.8596 20.478 21.7102 19.994C22.5756 19.51 23.2502 18.8573 23.7342 18.036C24.2329 17.2147 24.4822 16.3053 24.4822 15.308ZM18.8502 18.652C18.2636 18.652 17.7136 18.498 17.2002 18.19C16.7016 17.882 16.2982 17.4787 15.9902 16.98C15.6822 16.4667 15.5282 15.9093 15.5282 15.308C15.5282 14.7067 15.6749 14.1567 15.9682 13.658C16.2762 13.1593 16.6869 12.7633 17.2002 12.47C17.7136 12.162 18.2636 12.008 18.8502 12.008C19.4662 12.008 20.0236 12.162 20.5222 12.47C21.0209 12.7633 21.4169 13.1593 21.7102 13.658C22.0182 14.1567 22.1722 14.7067 22.1722 15.308C22.1722 15.9093 22.0182 16.4667 21.7102 16.98C21.4169 17.4933 21.0136 17.904 20.5002 18.212C20.0016 18.5053 19.4516 18.652 18.8502 18.652Z" fill="white"/>
<path d="M31.512 20V10.388H33.87L37.74 17.21H36.804L40.872 10.388H42.978L42.996 20H40.962V12.8L41.322 13.034L37.722 18.992H36.75L33.132 12.872L33.564 12.764V20H31.512ZM45.294 14.114V13.106L48.516 10.298C48.912 9.938 49.17 9.656 49.29 9.452C49.422 9.236 49.488 9.032 49.488 8.84C49.488 8.564 49.362 8.336 49.11 8.156C48.87 7.964 48.48 7.868 47.94 7.868C47.532 7.868 47.166 7.934 46.842 8.066C46.518 8.198 46.26 8.396 46.068 8.66L44.934 7.85C45.234 7.442 45.648 7.118 46.176 6.878C46.704 6.638 47.334 6.518 48.066 6.518C49.038 6.518 49.788 6.728 50.316 7.148C50.844 7.568 51.108 8.096 51.108 8.732C51.108 9.092 51.018 9.44 50.838 9.776C50.67 10.112 50.298 10.532 49.722 11.036L47.004 13.412L46.626 12.836H51.414V14.114H45.294Z" fill="white"/>
</svg>
