<svg width="58" height="28" viewBox="0 0 58 28" fill="none" xmlns="http://www.w3.org/2000/svg">
<path d="M8.118 15.808C8.734 15.9107 9.26933 16.1453 9.724 16.512C10.1933 16.864 10.5527 17.3187 10.802 17.876C11.0513 18.4187 11.176 19.0347 11.176 19.724C11.176 20.6333 10.9487 21.4253 10.494 22.1C10.054 22.7747 9.42333 23.2953 8.602 23.662C7.78067 24.0433 6.81267 24.234 5.698 24.234C4.58333 24.234 3.60067 24.036 2.75 23.64C1.89933 23.2587 1.21733 22.7013 0.704 21.968L2.178 20.296C2.53 20.824 2.98467 21.242 3.542 21.55C4.09933 21.8727 4.80333 22.034 5.654 22.034C6.60733 22.034 7.348 21.8287 7.876 21.418C8.404 21.0073 8.668 20.3913 8.668 19.57C8.668 18.7193 8.37467 18.052 7.788 17.568C7.216 17.084 6.35067 16.842 5.192 16.842H4.598V14.95H5.258C6.24067 14.95 6.996 14.7227 7.524 14.268C8.052 13.7987 8.316 13.212 8.316 12.508C8.316 12.0387 8.206 11.6573 7.986 11.364C7.78067 11.056 7.48733 10.8287 7.106 10.682C6.72467 10.5353 6.28467 10.462 5.786 10.462C5.038 10.462 4.378 10.6233 3.806 10.946C3.234 11.2687 2.77933 11.7307 2.442 12.332L0.924 10.682C1.21733 10.2127 1.62067 9.802 2.134 9.45C2.64733 9.098 3.234 8.82667 3.894 8.636C4.56867 8.43067 5.28 8.328 6.028 8.328C6.996 8.328 7.84667 8.48933 8.58 8.812C9.31333 9.13467 9.878 9.58933 10.274 10.176C10.6847 10.7627 10.89 11.452 10.89 12.244C10.89 12.816 10.78 13.3587 10.56 13.872C10.34 14.3707 10.0173 14.796 9.592 15.148C9.16667 15.4853 8.67533 15.7053 8.118 15.808ZM17.8382 24.278C16.7089 24.278 15.6969 24.0213 14.8022 23.508C13.9076 23.0093 13.2256 22.3273 12.7562 21.462L14.2082 20.076C14.6189 20.7067 15.1469 21.2053 15.7922 21.572C16.4376 21.9533 17.1269 22.144 17.8602 22.144C18.4616 22.144 18.9969 22.012 19.4662 21.748C19.9356 21.4987 20.3022 21.1467 20.5662 20.692C20.8449 20.2227 20.9842 19.6873 20.9842 19.086C20.9842 18.4993 20.8522 17.986 20.5882 17.546C20.3242 17.0913 19.9722 16.7467 19.5322 16.512C19.0922 16.2627 18.5862 16.138 18.0142 16.138C17.4569 16.138 16.9362 16.2627 16.4522 16.512C15.9682 16.7613 15.5722 17.1133 15.2642 17.568H13.1302L14.9122 8.438H22.5462V10.66H16.6722L15.8802 14.928C16.1296 14.664 16.4669 14.4513 16.8922 14.29C17.3176 14.114 17.8016 14.026 18.3442 14.026C19.3269 14.026 20.1996 14.246 20.9622 14.686C21.7396 15.1113 22.3482 15.698 22.7882 16.446C23.2429 17.194 23.4702 18.0593 23.4702 19.042C23.4702 20.0833 23.2209 20.9927 22.7222 21.77C22.2236 22.562 21.5489 23.178 20.6982 23.618C19.8476 24.058 18.8942 24.278 17.8382 24.278Z" fill="white"/>
<path d="M31.512 20.5V10.888H33.87L37.74 17.71H36.804L40.872 10.888H42.978L42.996 20.5H40.962V13.3L41.322 13.534L37.722 19.492H36.75L33.132 13.372L33.564 13.264V20.5H31.512ZM45.294 14.614V13.606L48.516 10.798C48.912 10.438 49.17 10.156 49.29 9.952C49.422 9.736 49.488 9.532 49.488 9.34C49.488 9.064 49.362 8.836 49.11 8.656C48.87 8.464 48.48 8.368 47.94 8.368C47.532 8.368 47.166 8.434 46.842 8.566C46.518 8.698 46.26 8.896 46.068 9.16L44.934 8.35C45.234 7.942 45.648 7.618 46.176 7.378C46.704 7.138 47.334 7.018 48.066 7.018C49.038 7.018 49.788 7.228 50.316 7.648C50.844 8.068 51.108 8.596 51.108 9.232C51.108 9.592 51.018 9.94 50.838 10.276C50.67 10.612 50.298 11.032 49.722 11.536L47.004 13.912L46.626 13.336H51.414V14.614H45.294Z" fill="white"/>
</svg>
