<svg width="58" height="28" viewBox="0 0 58 28" fill="none" xmlns="http://www.w3.org/2000/svg">
<path d="M0.88 21C0.88 20.384 0.931333 19.8193 1.034 19.306C1.13667 18.778 1.31267 18.2793 1.562 17.81C1.826 17.3407 2.18533 16.9007 2.64 16.49C3.10933 16.0647 3.70333 15.6613 4.422 15.28C4.93533 14.9867 5.41933 14.73 5.874 14.51C6.32867 14.2753 6.732 14.048 7.084 13.828C7.436 13.5933 7.70733 13.344 7.898 13.08C8.10333 12.816 8.206 12.5153 8.206 12.178C8.206 11.8553 8.118 11.5547 7.942 11.276C7.766 10.9973 7.502 10.7773 7.15 10.616C6.798 10.44 6.37267 10.352 5.874 10.352C5.478 10.352 5.11133 10.4033 4.774 10.506C4.45133 10.6087 4.15067 10.748 3.872 10.924C3.608 11.0853 3.366 11.2687 3.146 11.474C2.926 11.6647 2.73533 11.8553 2.574 12.046L1.056 10.308C1.20267 10.132 1.43 9.934 1.738 9.714C2.06067 9.47933 2.442 9.252 2.882 9.032C3.33667 8.79733 3.85 8.60667 4.422 8.46C4.994 8.29867 5.61733 8.218 6.292 8.218C7.24533 8.218 8.05933 8.37933 8.734 8.702C9.40867 9.01 9.922 9.44267 10.274 10C10.6407 10.5427 10.824 11.1587 10.824 11.848C10.824 12.3907 10.714 12.8673 10.494 13.278C10.2887 13.6887 10.0173 14.0553 9.68 14.378C9.34267 14.686 8.98333 14.9573 8.602 15.192C8.23533 15.412 7.89067 15.61 7.568 15.786C6.996 16.0647 6.49733 16.3213 6.072 16.556C5.66133 16.7907 5.30933 17.0253 5.016 17.26C4.72267 17.48 4.48067 17.7147 4.29 17.964C4.09933 18.1987 3.938 18.4847 3.806 18.822H11.066V21H0.88ZM24.4822 15.808C24.4822 14.8253 24.2402 13.9453 23.7562 13.168C23.2869 12.376 22.6416 11.7453 21.8202 11.276C21.0136 10.8067 20.0969 10.572 19.0702 10.572C18.5276 10.572 18.0142 10.66 17.5302 10.836C17.0462 11.012 16.6209 11.2613 16.2542 11.584C15.9022 11.892 15.6162 12.266 15.3962 12.706C15.4109 11.5767 15.5649 10.616 15.8582 9.824C16.1662 9.032 16.5916 8.43067 17.1342 8.02C17.6916 7.59467 18.3296 7.382 19.0482 7.382C19.7669 7.382 20.4196 7.56533 21.0062 7.932C21.6076 8.284 22.0769 8.768 22.4142 9.384L23.8442 7.888C23.3309 7.06667 22.6562 6.42867 21.8202 5.974C20.9989 5.50467 20.0896 5.27 19.0922 5.27C17.8896 5.27 16.8409 5.60733 15.9462 6.282C15.0516 6.95667 14.3549 7.96133 13.8562 9.296C13.3722 10.6307 13.1302 12.2953 13.1302 14.29C13.1302 15.7273 13.3649 16.9667 13.8342 18.008C14.3182 19.0493 14.9856 19.8487 15.8362 20.406C16.7016 20.9487 17.7062 21.22 18.8502 21.22C19.9062 21.22 20.8596 20.978 21.7102 20.494C22.5756 20.01 23.2502 19.3573 23.7342 18.536C24.2329 17.7147 24.4822 16.8053 24.4822 15.808ZM18.8502 19.152C18.2636 19.152 17.7136 18.998 17.2002 18.69C16.7016 18.382 16.2982 17.9787 15.9902 17.48C15.6822 16.9667 15.5282 16.4093 15.5282 15.808C15.5282 15.2067 15.6749 14.6567 15.9682 14.158C16.2762 13.6593 16.6869 13.2633 17.2002 12.97C17.7136 12.662 18.2636 12.508 18.8502 12.508C19.4662 12.508 20.0236 12.662 20.5222 12.97C21.0209 13.2633 21.4169 13.6593 21.7102 14.158C22.0182 14.6567 22.1722 15.2067 22.1722 15.808C22.1722 16.4093 22.0182 16.9667 21.7102 17.48C21.4169 17.9933 21.0136 18.404 20.5002 18.712C20.0016 19.0053 19.4516 19.152 18.8502 19.152Z" fill="white"/>
<path d="M31.512 20.5V10.888H33.87L37.74 17.71H36.804L40.872 10.888H42.978L42.996 20.5H40.962V13.3L41.322 13.534L37.722 19.492H36.75L33.132 13.372L33.564 13.264V20.5H31.512ZM45.294 14.614V13.606L48.516 10.798C48.912 10.438 49.17 10.156 49.29 9.952C49.422 9.736 49.488 9.532 49.488 9.34C49.488 9.064 49.362 8.836 49.11 8.656C48.87 8.464 48.48 8.368 47.94 8.368C47.532 8.368 47.166 8.434 46.842 8.566C46.518 8.698 46.26 8.896 46.068 9.16L44.934 8.35C45.234 7.942 45.648 7.618 46.176 7.378C46.704 7.138 47.334 7.018 48.066 7.018C49.038 7.018 49.788 7.228 50.316 7.648C50.844 8.068 51.108 8.596 51.108 9.232C51.108 9.592 51.018 9.94 50.838 10.276C50.67 10.612 50.298 11.032 49.722 11.536L47.004 13.912L46.626 13.336H51.414V14.614H45.294Z" fill="white"/>
</svg>
