<svg width="50" height="50" viewBox="0 0 50 50" fill="none" xmlns="http://www.w3.org/2000/svg">
<mask id="mask0_1358_16783" style="mask-type:alpha" maskUnits="userSpaceOnUse" x="0" y="0" width="50" height="50">
<rect width="50" height="50" fill="white"/>
</mask>
<g mask="url(#mask0_1358_16783)">
<path d="M20.8346 27.3958L22.3971 22.1875L18.2826 19.2708H23.4388L25.0013 13.9583L26.5638 19.2708H31.7201L27.6055 22.1875L29.168 27.3958L25.0013 24.1667L20.8346 27.3958ZM15.2096 43.75V30.7292C13.8902 29.4792 12.8659 28.0035 12.1367 26.3021C11.4076 24.6007 11.043 22.7778 11.043 20.8333C11.043 16.9444 12.3971 13.6458 15.1055 10.9375C17.8138 8.22917 21.1124 6.875 25.0013 6.875C28.8902 6.875 32.1888 8.22917 34.8971 10.9375C37.6055 13.6458 38.9596 16.9444 38.9596 20.8333C38.9596 22.7778 38.5951 24.6007 37.8659 26.3021C37.1367 28.0035 36.1124 29.4792 34.793 30.7292V43.75L25.0013 40.9375L15.2096 43.75ZM25.0013 33.3333C28.4735 33.3333 31.4249 32.1181 33.8555 29.6875C36.286 27.2569 37.5013 24.3056 37.5013 20.8333C37.5013 17.3611 36.286 14.4097 33.8555 11.9792C31.4249 9.54861 28.4735 8.33333 25.0013 8.33333C21.5291 8.33333 18.5777 9.54861 16.1471 11.9792C13.7166 14.4097 12.5013 17.3611 12.5013 20.8333C12.5013 24.3056 13.7166 27.2569 16.1471 29.6875C18.5777 32.1181 21.5291 33.3333 25.0013 33.3333ZM16.668 41.7708L25.0013 39.375L33.3346 41.7708V31.9792C32.1888 32.8819 30.9041 33.5764 29.4805 34.0625C28.0569 34.5486 26.5638 34.7917 25.0013 34.7917C23.4388 34.7917 21.9457 34.5486 20.5221 34.0625C19.0985 33.5764 17.8138 32.8819 16.668 31.9792V41.7708Z" fill="white"/>
</g>
</svg>
