<svg width="125" height="131" viewBox="0 0 125 131" fill="none" xmlns="http://www.w3.org/2000/svg">
<rect width="125" height="131" fill="#00E19F"/>
<path d="M62.4797 106.511C63.3754 106.511 64.1016 105.792 64.1016 104.906C64.1016 104.019 63.3754 103.3 62.4797 103.3C61.584 103.3 60.8579 104.019 60.8579 104.906C60.8579 105.792 61.584 106.511 62.4797 106.511Z" fill="black"/>
<path d="M62.4797 44.0316C46.3426 44.0316 33.2869 56.9528 33.2869 72.9237C33.2869 88.8945 46.3426 101.816 62.4797 101.816C78.6169 101.816 91.6726 88.8945 91.6726 72.9237C91.6726 56.9528 78.6169 44.0316 62.4797 44.0316ZM62.4797 98.6055C48.1671 98.6055 36.5711 87.0888 36.5711 72.9237C36.5711 58.7585 48.2077 47.282 62.5203 47.282C76.8329 47.282 88.429 58.7585 88.429 72.9237C88.429 87.0888 76.7923 98.5653 62.4797 98.5653V98.6055ZM55.9924 74.8899C55.9924 76.8562 54.3706 78.4212 52.4244 78.4212C50.4377 78.4212 48.8564 76.8161 48.8564 74.8899C48.8564 72.9237 50.4377 71.3587 52.4244 71.3587C54.3706 71.3587 55.9924 72.9237 55.9924 74.8498V74.8899ZM76.1436 74.8899C76.1436 76.8562 74.5218 78.4212 72.5756 78.4212C70.5889 78.4212 69.0076 76.8161 69.0076 74.8899C69.0076 72.9237 70.5889 71.3587 72.5756 71.3587C74.5218 71.3587 76.1031 72.9237 76.1436 74.8498V74.8899ZM79.3467 67.5465L82.6309 64.0153H75.3327C67.5885 58.7987 57.4115 58.7987 49.6673 64.0153H42.3285L45.6127 67.5465C41.2743 70.9975 40.6256 77.2976 44.1125 81.5511C47.5995 85.8047 53.9651 86.4869 58.263 83.0359C58.5873 82.755 58.9117 82.4741 59.2361 82.1531L62.4797 85.6442L65.7234 82.1531C69.8185 85.8849 76.1842 85.6041 79.9549 81.5511C83.7257 77.4982 83.4418 71.1982 79.3467 67.4663V67.5465ZM52.4244 81.6314C48.6537 81.6314 45.6127 78.6218 45.6127 74.8899C45.6127 71.158 48.6537 68.1484 52.4244 68.1484C56.1546 68.1484 59.2361 71.158 59.2361 74.8498C59.2361 78.5817 56.1952 81.5913 52.4244 81.6314C52.4244 81.5913 52.4244 81.5913 52.4244 81.5913V81.6314ZM62.4797 74.6893C62.4797 70.2351 59.1955 66.4229 54.8977 64.8178C59.7226 62.8114 65.1963 62.8114 70.0212 64.8178C65.7234 66.4229 62.4797 70.2351 62.4797 74.6893ZM72.5351 81.5913C68.7643 81.5913 65.7234 78.5817 65.7234 74.8498C65.7234 71.1179 68.7643 68.1083 72.5351 68.1083C76.3058 68.1083 79.3467 71.1179 79.3467 74.8498C79.3467 78.5817 76.3058 81.5913 72.5351 81.5913Z" fill="black"/>
<path d="M46.2209 104.865C46.2209 104.865 42.6934 102.177 36.3278 101.414C32.4759 101.013 28.5836 101.936 25.2994 103.983C25.2994 103.983 29.5567 105.708 36.0034 106.35C42.4502 106.992 46.2209 104.865 46.2209 104.865Z" fill="black"/>
<path d="M36.3278 99.3278C36.3278 99.3278 33.1652 96.0774 27.205 93.8303C23.4748 92.506 19.4202 92.2251 15.5279 92.9876C15.5279 92.9876 19.177 96.3984 25.4615 98.8061C31.7461 101.214 36.3278 99.3278 36.3278 99.3278Z" fill="black"/>
<path d="M26.8806 91.6232C26.8806 91.6232 25.0155 87.1289 20.1095 82.6346C16.9875 79.8658 13.1357 78.0199 9 77.3377C9 77.3377 11.23 82.1932 16.5009 86.9684C21.7719 91.7436 26.8806 91.6232 26.8806 91.6232Z" fill="black"/>
<path d="M25.0155 83.0359C25.0155 83.0359 24.4074 78.2205 20.8393 72.6026C18.5688 69.1516 15.3251 66.3828 11.5544 64.6573C11.5544 64.6573 12.4464 69.9141 16.2577 75.8931C20.069 81.8722 25.0155 83.0359 25.0155 83.0359Z" fill="black"/>
<path d="M25.2588 71.5192C25.2588 71.5192 25.0966 66.5835 22.0963 60.5643C20.1906 56.8725 17.2713 53.7827 13.7033 51.6559C13.7033 51.6559 14.1088 57.0732 17.3119 63.4535C20.515 69.8338 25.2588 71.5192 25.2588 71.5192Z" fill="black"/>
<path d="M39.3687 96.0373C39.3687 96.0373 37.8685 92.3455 33.895 88.6538C31.3407 86.3665 28.2186 84.8416 24.8534 84.2397C26.3535 87.2092 28.4214 89.8977 30.9352 92.185C35.1925 96.1176 39.3687 96.0373 39.3687 96.0373Z" fill="black"/>
<path d="M49.4646 101.535C47.7617 100.05 45.7749 98.8864 43.6665 98.1239C41.3554 97.2411 38.8416 97.0004 36.3683 97.3615C38.274 98.9265 40.4229 100.13 42.6934 101.013C46.6669 102.538 49.4646 101.535 49.4646 101.535Z" fill="black"/>
<path d="M59.2361 103.501C57.5332 102.899 55.7086 102.658 53.9246 102.739C51.9379 102.819 50.0322 103.461 48.3698 104.544C50.2349 105.146 52.1811 105.387 54.1273 105.307C57.5332 105.186 59.2361 103.501 59.2361 103.501Z" fill="black"/>
<path d="M34.9898 87.169C34.9898 87.169 34.3005 83.2365 31.1785 78.8224C29.1917 76.0938 26.4346 73.967 23.2721 72.6829C24.1235 75.8931 25.5832 78.9428 27.5294 81.6715C30.8541 86.4066 34.9898 87.169 34.9898 87.169Z" fill="black"/>
<path d="M31.0163 75.2511C31.0163 75.2511 31.7867 71.2784 30.4892 65.9815C29.6377 62.6911 27.8943 59.7216 25.421 57.3942C25.0561 60.7649 25.2994 64.1357 26.1103 67.4261C27.5294 73.0842 31.0163 75.2511 31.0163 75.2511Z" fill="black"/>
<path d="M78.7385 104.865C78.7385 104.865 82.266 102.177 88.6317 101.414C92.4835 101.013 96.3759 101.936 99.6601 103.983C99.6601 103.983 95.4028 105.708 88.9561 106.35C82.5093 106.992 78.7385 104.865 78.7385 104.865Z" fill="black"/>
<path d="M88.6317 99.3278C88.6317 99.3278 91.8348 96.0774 97.7139 93.8303C101.444 92.506 105.499 92.2251 109.391 92.9876C109.391 92.9876 105.742 96.3984 99.4574 98.8061C93.1728 101.214 88.6317 99.3278 88.6317 99.3278Z" fill="black"/>
<path d="M98.1194 91.6232C98.1194 91.6232 99.9845 87.1289 104.89 82.6346C108.013 79.8658 111.864 78.0199 116 77.3377C116 77.3377 113.77 82.1932 108.499 86.9684C103.228 91.7436 98.1194 91.6232 98.1194 91.6232Z" fill="black"/>
<path d="M99.9439 83.0359C99.9439 83.0359 100.552 78.2205 104.12 72.6026C106.391 69.1516 109.634 66.3828 113.405 64.6573C113.405 64.6573 112.513 69.9141 108.702 75.8931C104.89 81.8722 99.9439 83.0359 99.9439 83.0359Z" fill="black"/>
<path d="M99.7412 71.5192C99.7412 71.5192 99.9034 66.5835 102.904 60.5643C104.809 56.8725 107.729 53.7827 111.297 51.6559C111.297 51.6559 110.891 57.0732 107.688 63.4535C104.485 69.8338 99.7412 71.5192 99.7412 71.5192Z" fill="black"/>
<path d="M85.5908 96.0373C85.5908 96.0373 87.0504 92.3455 91.0644 88.6538C93.6188 86.3665 96.7408 84.8416 100.106 84.2397C98.6059 87.2092 96.5381 89.8977 94.0242 92.185C89.8075 96.1176 85.5908 96.0373 85.5908 96.0373Z" fill="black"/>
<path d="M75.4949 101.535C77.1978 100.05 79.1845 98.8864 81.2929 98.1239C83.604 97.2411 86.1178 97.0004 88.5911 97.3615C86.6855 98.9265 84.5366 100.13 82.266 101.013C78.2925 102.538 75.4949 101.535 75.4949 101.535Z" fill="black"/>
<path d="M65.7234 103.501C67.4263 102.899 69.2509 102.658 71.0349 102.739C73.0216 102.819 74.9273 103.461 76.5896 104.544C74.7245 105.146 72.7783 105.387 70.8321 105.307C67.4263 105.186 65.7234 103.501 65.7234 103.501Z" fill="black"/>
<path d="M89.9697 87.169C89.9697 87.169 90.659 83.2365 93.781 78.8224C95.7677 76.0938 98.5248 73.967 101.687 72.6829C100.836 75.8931 99.3763 78.9428 97.4301 81.6715C94.1053 86.4066 89.9697 87.169 89.9697 87.169Z" fill="black"/>
<path d="M93.9026 75.2511C93.9026 75.2511 93.1322 71.2784 94.4297 65.9815C95.2812 62.6911 97.0246 59.7216 99.4979 57.3942C99.8628 60.7649 99.6196 64.1357 98.8086 67.4261C97.4301 73.0842 93.9026 75.2511 93.9026 75.2511Z" fill="black"/>
<path d="M30.1648 11.9695H26.3941V23.0447H23.4343V11.9695H19.6635V9.2809H30.1648V11.9695Z" fill="black"/>
<path d="M35.3547 13.3338V15.9421H33.895C32.8409 15.9421 32.3138 16.4638 32.3138 17.5071V23.0447H29.5567V13.3338H32.1516V15.1396C32.2327 14.0962 33.1247 13.2937 34.1789 13.3338H35.3547Z" fill="black"/>
<path d="M35.6385 18.1893C35.6385 15.3402 37.6658 13.0529 40.504 13.0529C41.8825 13.0529 42.9367 13.4943 43.5854 14.1364V13.2937H46.1804V23.0046H43.5854V21.8409C42.9367 22.6836 42.0042 23.2855 40.4229 23.2855C37.6658 23.3256 35.6385 21.0384 35.6385 18.1893ZM43.5854 18.1893C43.5854 16.7848 42.4096 15.6612 40.9905 15.6612C39.5714 15.6612 38.4362 16.8249 38.4362 18.2294C38.4362 19.6339 39.612 20.7575 40.9905 20.7575C42.3691 20.7976 43.5449 19.7141 43.5854 18.3498C43.5854 18.3097 43.5854 18.2294 43.5854 18.1893Z" fill="black"/>
<path d="M47.2346 13.3338H50.1944L51.6946 18.4702C51.8568 19.0721 51.9784 19.4332 52.0595 19.9148C52.1406 19.4734 52.2622 19.0721 52.4244 18.4702L53.9246 13.3338H56.8844L53.6408 23.0447H50.4782L47.2346 13.3338Z" fill="black"/>
<path d="M66.8587 18.8313H59.601C59.6415 20.0753 60.6957 21.0384 61.9526 21.0384C63.0879 21.0384 63.8988 20.4364 64.1421 19.5536H66.8181C66.3316 21.9212 64.5881 23.2855 61.9526 23.2855C58.8712 23.2855 56.8439 21.0384 56.8439 18.1491C56.7628 15.3803 58.9523 13.093 61.7499 13.0128C61.831 13.0128 61.8715 13.0128 61.9526 13.0128C65.0341 13.0128 66.8992 14.8988 66.8992 18.3498L66.8587 18.8313ZM59.6821 16.7848H64.2232C63.9394 15.8217 63.169 15.1797 61.9121 15.1797C60.8985 15.1797 60.0064 15.8217 59.6821 16.7848Z" fill="black"/>
<path d="M68.075 9.2809H70.8727V23.0046H68.075V9.2809Z" fill="black"/>
<path d="M72.4945 9.2809H75.2922V23.0046H72.4945V9.2809Z" fill="black"/>
<path d="M86.4017 18.8313H79.1034C79.144 20.0753 80.1982 21.0384 81.4551 21.0384C82.5904 21.0384 83.4013 20.4364 83.6446 19.5536H86.3206C85.834 21.9212 84.0906 23.2855 81.4551 23.2855C78.3736 23.2855 76.3463 21.0384 76.3463 18.1491C76.2653 15.3803 78.4547 13.093 81.2524 13.0128C81.3335 13.0128 81.374 13.0128 81.4551 13.0128C84.5366 13.0128 86.4017 14.8988 86.4017 18.3498V18.8313ZM79.2656 16.7848H83.8067C83.5229 15.8217 82.7526 15.1797 81.4956 15.1797C80.482 15.1797 79.59 15.8217 79.2656 16.7848Z" fill="black"/>
<path d="M93.4972 13.3338V15.9421H92.0375C90.9833 15.9421 90.4562 16.4638 90.4562 17.5071V23.0447H87.6586V13.3338H90.2535V15.1396C90.3346 14.0962 91.2266 13.2937 92.2808 13.3338H93.4972Z" fill="black"/>
<path d="M94.227 19.8746H97.0246C96.9841 20.4364 97.3895 20.9581 97.9572 20.9982C97.9977 20.9982 98.0788 20.9982 98.1194 20.9982C98.7681 20.9982 99.1736 20.6772 99.1736 20.1957C99.1736 19.7141 98.7276 19.3931 97.8355 19.1122L96.5381 18.7511C95.2406 18.3899 94.3486 17.467 94.3486 16.0625C94.3486 14.2567 95.9705 13.093 97.9977 13.093C100.309 13.093 101.566 14.3771 101.566 16.1829H98.9303C98.9303 15.6612 98.4843 15.2599 97.9977 15.2599C97.9977 15.2599 97.9977 15.2599 97.9572 15.2599C97.3895 15.2599 97.0246 15.581 97.0246 15.9421C97.0246 16.3835 97.3895 16.6243 98.1599 16.8249L99.579 17.2262C100.876 17.5874 101.809 18.4702 101.809 19.9148C101.809 21.7205 100.349 23.3256 98.0383 23.3256C95.9705 23.3256 94.227 22.0014 94.227 19.8746Z" fill="black"/>
<path d="M102.904 13.7351H103.147C103.836 13.7351 104.444 13.3739 104.566 12.3707C104.444 12.4109 104.282 12.451 104.161 12.451C103.228 12.451 102.458 11.7287 102.417 10.8058C102.417 10.7656 102.417 10.7656 102.417 10.7255C102.417 9.76243 103.188 9 104.12 9C104.12 9 104.12 9 104.161 9C105.418 9 106.107 10.1236 106.107 11.6484C106.107 14.0561 104.931 15.1797 103.269 15.1797H102.863L102.904 13.7351Z" fill="black"/>
<path d="M32.1516 33.8391C32.1516 29.6257 35.3141 26.6964 39.166 26.6964C42.8962 26.6964 45.2478 28.7429 45.7749 31.9933H42.7745C42.3285 30.3881 41.0311 29.4251 39.166 29.4251C36.936 29.4251 35.1114 31.2308 35.1114 33.8391C35.1114 36.4474 36.936 38.2933 39.166 38.2933C41.0311 38.2933 42.3285 37.3704 42.7745 35.685H45.8155C45.2073 38.9755 42.6124 41.022 39.166 41.022C35.2736 40.9819 32.1516 38.0526 32.1516 33.8391Z" fill="black"/>
<path d="M46.9913 26.9371H49.7889V32.2741C50.2349 31.4716 51.3297 30.669 52.911 30.669C54.8571 30.669 56.2357 32.0334 56.2357 34.2404V40.6609H53.438V35.043C53.5191 34.0398 52.7488 33.1971 51.7351 33.1168C50.7215 33.0366 49.87 33.799 49.7889 34.8022C49.7889 34.8825 49.7889 34.9627 49.7889 35.043V40.6609H46.9913V26.9371Z" fill="black"/>
<path d="M57.2899 35.8455C57.2899 32.9964 59.3983 30.7092 62.6014 30.7092C65.8045 30.7092 67.9128 32.9964 67.9128 35.8455C67.9128 38.6946 65.8045 40.9819 62.6014 40.9819C59.3983 40.9819 57.2899 38.6946 57.2899 35.8455ZM65.1152 35.8455C65.0746 34.4812 63.8988 33.3977 62.5203 33.4379C61.1417 33.478 60.047 34.6417 60.0875 36.006C60.1281 37.3704 61.2634 38.4137 62.6014 38.4137C63.9394 38.4538 65.0746 37.3704 65.1152 36.0462C65.1152 35.9659 65.1152 35.9258 65.1152 35.8455Z" fill="black"/>
<path d="M68.5616 28.0206C68.5616 27.0575 69.332 26.2951 70.305 26.2951C71.2781 26.2951 72.0485 27.0575 72.0485 28.0206C72.0485 28.9837 71.2781 29.7461 70.305 29.7461C69.332 29.7461 68.5616 28.9837 68.5616 28.0206ZM68.9265 30.9901H71.7241V40.701H68.967L68.9265 30.9901Z" fill="black"/>
<path d="M72.7783 35.8455C72.6972 33.1168 74.8867 30.7894 77.6438 30.7092C77.7654 30.7092 77.8465 30.7092 77.9682 30.7092C81.0496 30.7092 82.712 32.3544 83.0364 34.6016H80.1576C79.8738 33.799 79.1845 33.2372 78.0087 33.2372C76.5896 33.3576 75.4949 34.6016 75.6165 36.006C75.6976 37.2901 76.7518 38.2933 78.0087 38.3736C79.1845 38.3736 79.8738 37.8519 80.1576 37.0092H83.0364C82.5904 39.3768 80.9685 40.9016 77.9682 40.9016C75.2111 40.9819 72.8594 38.815 72.7783 36.0863C72.7783 36.0462 72.7783 35.9258 72.7783 35.8455Z" fill="black"/>
<path d="M93.5377 36.4876H86.2395C86.28 37.7315 87.3342 38.6946 88.5911 38.6946C89.7264 38.6946 90.5779 38.0927 90.7806 37.2099H93.4566C92.9701 39.5774 91.2266 40.9418 88.5911 40.9418C85.5097 40.9418 83.4824 38.6946 83.4824 35.8054C83.4013 33.0366 85.5908 30.7493 88.3884 30.669C88.4695 30.669 88.51 30.669 88.5911 30.669C91.6726 30.669 93.5377 32.555 93.5377 36.006V36.4876ZM86.4017 34.4411H90.9428C90.659 33.478 89.8886 32.8359 88.6317 32.8359C87.618 32.8359 86.726 33.478 86.4017 34.4411Z" fill="black"/>
<path d="M92.8079 27.6996H94.4297V28.0607H93.8215V29.9066H93.4161V28.0607H92.8079V27.6996Z" fill="black"/>
<path d="M95.8083 29.3849L95.2001 27.7397H94.7541V29.9467H95.119V28.7028C95.119 28.5824 95.119 28.462 95.119 28.3817L95.6866 29.9467H95.9705L96.5381 28.3817C96.5381 28.5021 96.5381 28.6225 96.5381 28.7028V29.9467H96.903V27.7397H96.457L95.8083 29.3849Z" fill="black"/>
<path d="M42.1258 117.345L46.748 113.814C47.3562 113.332 47.64 112.891 47.64 112.249C47.64 111.487 47.1129 110.965 46.2209 110.965C45.3289 110.965 44.7207 111.607 44.6802 112.329H41.8825C41.8825 110.403 43.3422 108.517 46.2615 108.517C48.978 108.517 50.5998 109.962 50.5998 112.008C50.5998 113.694 49.8295 114.657 48.0049 115.901L46.5858 116.864H50.7215V119.311H42.0853V117.345H42.1258Z" fill="black"/>
<path d="M51.5324 114.095C51.5324 111.045 53.803 108.557 57.2493 108.557C60.6957 108.557 62.9663 111.005 62.9663 114.095C62.9663 117.185 60.6957 119.632 57.2493 119.632C53.803 119.632 51.5324 117.145 51.5324 114.095ZM60.047 114.095C60.047 112.329 58.8306 111.206 57.2088 111.206C55.587 111.206 54.3706 112.329 54.3706 114.095C54.3706 115.86 55.587 116.984 57.2088 116.984C58.8306 116.984 60.047 115.86 60.047 114.095Z" fill="black"/>
<path d="M63.9799 117.345L68.6021 113.814C69.2103 113.332 69.4941 112.891 69.4941 112.249C69.4941 111.487 68.967 110.965 68.075 110.965C67.183 110.965 66.5748 111.607 66.5343 112.329H63.6961C63.6961 110.403 65.1557 108.517 68.075 108.517C70.7916 108.517 72.4134 109.962 72.4134 112.008C72.4134 113.694 71.643 114.657 69.8185 115.901L68.3994 116.864H72.6161V119.311H63.9799V117.345Z" fill="black"/>
<path d="M73.6703 117.666H76.5491C76.5896 118.71 77.36 119.352 78.4142 119.352C79.4278 119.352 80.1982 118.75 80.1982 117.787C80.1982 116.743 79.4278 116.222 78.2925 116.222H77.6033V113.974H78.3331C79.3062 113.974 79.9549 113.373 79.9549 112.57C79.9549 111.727 79.3467 111.206 78.3331 111.206C77.4411 111.206 76.7924 111.808 76.7113 112.53H73.9947C73.9947 110.403 75.6571 108.557 78.3331 108.557C81.0496 108.557 82.7931 110.002 82.7931 112.209C82.7931 113.493 82.0633 114.416 81.1713 114.938C82.3066 115.379 83.1175 116.422 83.1175 117.907C83.1175 120.355 81.1713 122 78.3736 122C75.2922 122 73.6703 119.994 73.6703 117.666Z" fill="black"/>
</svg>
