<svg width="31" height="26" viewBox="0 0 31 26" fill="none" xmlns="http://www.w3.org/2000/svg">
<mask id="mask0_588_3445" style="mask-type:alpha" maskUnits="userSpaceOnUse" x="-6" y="-7" width="44" height="40">
<rect x="-5.87109" y="-7" width="43.3333" height="40" fill="#D9D9D9"/>
</mask>
<g mask="url(#mask0_588_3445)">
<path d="M2.79573 7.24033L0.865234 5.45833L3.92078 2.62179C4.64992 1.94874 5.51391 1.42685 6.51274 1.05612C7.51161 0.685374 8.50871 0.5 9.50405 0.5C10.4624 0.5 11.4103 0.663999 12.3478 0.991999C13.2853 1.32 14.1649 1.86326 14.9867 2.62179L18.3721 5.74679C18.8698 6.20621 19.4427 6.55771 20.0909 6.80129C20.739 7.04487 21.3987 7.16667 22.07 7.16667C22.7413 7.16667 23.3935 7.04487 24.0266 6.80129C24.6597 6.55771 25.2252 6.20621 25.7229 5.74679L28.7957 2.92633L30.7262 4.70833L27.6707 7.54483C26.9045 8.25211 26.0359 8.78256 25.0648 9.13617C24.0938 9.48981 23.0955 9.66662 22.07 9.66662C21.0631 9.66662 20.0695 9.48981 19.0892 9.13617C18.1088 8.78256 17.2356 8.25211 16.4694 7.54483L13.084 4.41983C12.5678 3.94333 12.007 3.58757 11.4016 3.35254C10.7963 3.11749 10.1638 2.99996 9.50405 2.99996C8.84433 2.99996 8.19329 3.12603 7.55094 3.37817C6.90858 3.63031 6.3478 3.97753 5.86861 4.41983L2.79573 7.24033ZM2.79573 15.157L0.865234 13.375L3.92078 10.5385C4.64992 9.86537 5.51391 9.34347 6.51274 8.97275C7.51161 8.60203 8.50871 8.41667 9.50405 8.41667C10.4994 8.41667 11.4566 8.58065 12.3756 8.90862C13.2946 9.23662 14.1649 9.7799 14.9867 10.5385L18.3721 13.6635C18.8698 14.1228 19.4427 14.4743 20.0909 14.7179C20.739 14.9615 21.3987 15.0833 22.07 15.0833C22.7413 15.0833 23.3935 14.9615 24.0266 14.7179C24.6597 14.4743 25.2252 14.1228 25.7229 13.6635L28.7957 10.843L30.7262 12.5833L27.6707 15.4615C26.9045 16.1687 26.0359 16.6992 25.0648 17.0528C24.0938 17.4064 23.0955 17.5833 22.07 17.5833C21.0631 17.5833 20.0695 17.4064 19.0892 17.0528C18.1088 16.6992 17.2356 16.1687 16.4694 15.4615L13.084 12.2948C12.5678 11.8183 12.0024 11.4695 11.3877 11.2483C10.7732 11.0272 10.1453 10.9166 9.50405 10.9166C8.84433 10.9166 8.19329 11.0357 7.55094 11.274C6.90858 11.5122 6.3478 11.8525 5.86861 12.2948L2.79573 15.157ZM2.79573 23.0736L0.865234 21.2916L3.92078 18.4551C4.64992 17.782 5.51391 17.2574 6.51274 16.8814C7.51161 16.5053 8.50871 16.3172 9.50405 16.3172C10.4624 16.3172 11.4103 16.4839 12.3478 16.8172C13.2853 17.1506 14.1649 17.6965 14.9867 18.4551L18.3721 21.5801C18.8698 22.0395 19.4427 22.3936 20.0909 22.6426C20.739 22.8915 21.3987 23.016 22.07 23.016C22.7413 23.016 23.3935 22.8915 24.0266 22.6426C24.6597 22.3936 25.2252 22.0395 25.7229 21.5801L28.7957 18.7596L30.7262 20.4999L27.6707 23.3781C26.9045 24.0854 26.0359 24.6185 25.0648 24.9775C24.0938 25.3364 23.0955 25.5159 22.07 25.5159C21.0631 25.5159 20.0695 25.3364 19.0892 24.9775C18.1088 24.6185 17.2356 24.0854 16.4694 23.3781L13.084 20.2115C12.5678 19.7243 12.0024 19.3701 11.3877 19.149C10.7732 18.9278 10.1453 18.8172 9.50405 18.8172C8.84433 18.8172 8.19329 18.9363 7.55094 19.1746C6.90858 19.4128 6.3478 19.7585 5.86861 20.2115L2.79573 23.0736Z" fill="#170000" fill-opacity="0.5"/>
</g>
</svg>
