<svg width="31" height="34" viewBox="0 0 31 34" fill="none" xmlns="http://www.w3.org/2000/svg">
<mask id="mask0_588_3410" style="mask-type:alpha" maskUnits="userSpaceOnUse" x="-6" y="-4" width="43" height="42">
<rect x="-5.77344" y="-4" width="42" height="42" fill="#D9D9D9"/>
</mask>
<g mask="url(#mask0_588_3410)">
<path d="M8.42847 16.798V13.7019H11.5246V16.798H8.42847ZM18.9285 16.798V13.7019H22.0246V16.798H18.9285ZM0.351562 33.6249V20.8702H2.10156V13.5C2.10156 11.6871 2.44372 9.9837 3.12803 8.38965C3.8123 6.79558 4.74906 5.40335 5.93831 4.21297C7.12752 3.02259 8.52177 2.08533 10.1211 1.4012C11.7204 0.717066 13.4222 0.375 15.2265 0.375C17.0393 0.375 18.7428 0.717154 20.3368 1.40146C21.9309 2.08574 23.323 3.023 24.5132 4.21323C25.7035 5.40344 26.6407 6.79558 27.325 8.38965C28.0093 9.9837 28.3515 11.6871 28.3515 13.5V20.8702H30.1015V33.6249H0.351562ZM2.97652 31H6.91406V23.4951H2.97652V31ZM9.53898 31H13.9141V23.4951H9.53898V31ZM4.72652 20.8702H13.9141V3.09756C11.4169 3.37126 9.2614 4.4779 7.44746 6.41749C5.6335 8.35707 4.72652 10.7179 4.72652 13.5V20.8702ZM16.539 20.8702H25.7265V13.5C25.7265 10.7179 24.8195 8.35707 23.0056 6.41749C21.1916 4.4779 19.0361 3.37126 16.539 3.09756V20.8702ZM16.539 31H20.9141V23.4951H16.539V31ZM23.539 31H27.4765V23.4951H23.539V31Z" fill="#170000" fill-opacity="0.5"/>
</g>
</svg>
