<svg width="34" height="33" viewBox="0 0 34 33" fill="none" xmlns="http://www.w3.org/2000/svg">
<path d="M2.83828 18.0421H32.2704V20.5761C32.2645 25.7719 27.9661 29.9824 22.6623 29.9882H11.338C6.03122 29.9882 1.72929 25.7742 1.72929 20.5761C1.72929 20.5558 1.72935 20.5354 1.72948 20.5151V20.5182V19.0702H2.83821L2.83828 18.0421ZM30.053 20.2141H3.94691V20.5254C3.94681 20.5405 3.94674 20.5583 3.94674 20.5761C3.94674 24.5747 7.25595 27.8161 11.338 27.8161H22.6618C26.7418 27.8112 30.048 24.5727 30.0531 20.5766V20.5761L30.053 20.2141ZM6.77038 33H4.55303V31.1581L7.718 28.0739L9.28197 29.6131L6.76894 32.0602L6.77038 33ZM29.4469 33H27.2295V32.0617L24.7165 29.6145L26.2805 28.0753L29.4455 31.1595L29.4469 33ZM3.94694 19.1281H1.72955V4.54672C1.72955 2.03562 3.80774 0 6.37127 0H6.38608C8.94964 0 11.0278 2.03562 11.0278 4.54668V6.63181H8.81041V4.54672C8.81041 3.23516 7.72504 2.17194 6.38608 2.17194C6.38246 2.17194 6.37884 2.17194 6.37516 2.17201H6.37572H6.37127C5.03234 2.17201 3.94694 3.23516 3.94694 4.54672V19.1281ZM12.7574 7.71784H7.08083V5.54587H12.7574V7.71784ZM34 20.2141H0V18.0421H34V20.2141Z" fill="#170000" fill-opacity="0.5"/>
</svg>
