<svg width="26" height="33" viewBox="0 0 26 33" fill="none" xmlns="http://www.w3.org/2000/svg">
<path d="M8.37774 0H17.6433C19.9436 0 22.0265 1.18065 23.5366 3.09052L23.5433 3.09906C25.0609 5.01745 26 7.67185 26 10.6046V10.6349V10.6333V24.596H21.5857V33H4.41419V24.5666H0V10.6333C0.0137617 4.76775 3.75639 0.0174346 8.37644 0H8.37776H8.37774ZM22.3137 4.64932C21.1156 3.13564 19.4634 2.20001 17.6389 2.20001H8.37771C4.71359 2.21741 1.747 5.98276 1.73324 10.6317V22.3666H6.14753V30.8H19.8524V22.396H24.2666V10.6334V10.6111C24.2666 8.28167 23.52 6.17354 22.314 4.65116L22.3137 4.65084L22.3137 4.64932ZM6.14753 23.4959H4.41411V8.09601H6.14745L6.14753 23.4959ZM21.5857 23.4959H19.8524V8.09601H21.5857V23.4959ZM14.4109 21.1288L7.78954 1.54001L9.38189 0.659999L16.0033 20.2546L14.4109 21.1288ZM13.7961 14.6021L12.2038 13.7339L16.618 0.659967L18.2104 1.54001L13.7961 14.6021ZM20.7191 21.7946H5.28084V19.5946H20.7191V21.7946ZM16.0737 31.9H14.3404V20.6947H16.0737V31.9Z" fill="#170000" fill-opacity="0.5"/>
</svg>
