<svg width="31" height="32" viewBox="0 0 31 32" fill="none" xmlns="http://www.w3.org/2000/svg">
<mask id="mask0_588_3421" style="mask-type:alpha" maskUnits="userSpaceOnUse" x="-4" y="-3" width="39" height="38">
<rect x="-3.62305" y="-3" width="38" height="38" fill="#D9D9D9"/>
</mask>
<g mask="url(#mask0_588_3421)">
<path d="M15.3776 25.257C17.4075 25.257 19.3445 24.8789 21.1887 24.1228C23.0329 23.3666 24.6786 22.2954 26.1259 20.9089L24.7984 19.5814C24.5284 19.8514 24.2422 20.1036 23.9398 20.3381C23.6373 20.5725 23.3125 20.7953 22.9654 21.0064L21.4368 18.3452V14.4782H23.1724V13.0775H14.2753L11.5045 8.32754H6.66927L7.88721 9.241L5.51221 12.0118L6.71186 13.2907L9.34875 11.5855V18.3147L7.78976 21.0064C7.41218 20.7648 7.07978 20.5344 6.79253 20.3152C6.50532 20.096 6.22672 19.8514 5.95673 19.5814L4.62919 20.9089C6.07651 22.2954 7.72227 23.3666 9.56645 24.1228C11.4106 24.8789 13.3477 25.257 15.3776 25.257ZM15.3776 23.3692C14.3748 23.3692 13.3771 23.2652 12.3844 23.0571C11.3918 22.8491 10.4043 22.4903 9.42178 21.9807L10.9808 19.2586C11.7278 19.5428 12.4667 19.7519 13.1974 19.8858C13.9282 20.0198 14.6549 20.0868 15.3776 20.0868C16.1165 20.0868 16.8472 20.0198 17.5699 19.8858C18.2925 19.7519 19.0273 19.5428 19.7744 19.2586L21.3334 21.9807C20.3509 22.4476 19.3633 22.7958 18.3707 23.0251C17.3781 23.2545 16.3803 23.3692 15.3776 23.3692ZM3.19813 31.0422C2.39833 31.0422 1.72135 30.7652 1.16719 30.211C0.613021 29.6568 0.335938 28.9798 0.335938 28.18V3.82118C0.335938 3.02138 0.613021 2.3444 1.16719 1.79023C1.72135 1.23607 2.39833 0.958984 3.19813 0.958984H27.557C28.3568 0.958984 29.0338 1.23607 29.5879 1.79023C30.1421 2.3444 30.4192 3.02138 30.4192 3.82118V28.18C30.4192 28.9798 30.1421 29.6568 29.5879 30.211C29.0338 30.7652 28.3568 31.0422 27.557 31.0422H3.19813ZM3.19813 28.6673H27.557C27.6788 28.6673 27.7905 28.6165 27.892 28.515C27.9935 28.4135 28.0442 28.3019 28.0442 28.18V3.82118C28.0442 3.69936 27.9935 3.5877 27.892 3.48618C27.7905 3.38469 27.6788 3.33394 27.557 3.33394H3.19813C3.07632 3.33394 2.96465 3.38469 2.86314 3.48618C2.76164 3.5877 2.7109 3.69936 2.7109 3.82118V28.18C2.7109 28.3019 2.76164 28.4135 2.86314 28.515C2.96465 28.6165 3.07632 28.6673 3.19813 28.6673Z" fill="#170000" fill-opacity="0.5"/>
</g>
</svg>
