<svg width="27" height="34" viewBox="0 0 27 34" fill="none" xmlns="http://www.w3.org/2000/svg">
<path d="M13.5 0C17.4114 0.0704902 20.8724 2.02589 23.0966 5.03239L23.1178 5.06221C25.5374 8.23951 26.9999 12.3116 26.9999 16.7408C26.9999 16.8319 26.9993 16.9229 26.9981 17.0137L26.9983 17C26.9994 17.077 27 17.168 27 17.2592C27 21.6884 25.5374 25.7604 23.0897 28.9761L23.1179 28.9377C20.8725 31.9741 17.4114 33.9295 13.5109 33.9999L13.5001 34C9.58864 33.9295 6.12756 31.9741 3.90337 28.9676L3.88216 28.9378C1.46267 25.7605 9.52653e-05 21.6884 9.52653e-05 17.2592C9.52653e-05 17.1681 0.000666857 17.0771 0.00190531 16.9863L0.00171478 17C0.000635102 16.923 0 16.832 0 16.7408C3.17551e-05 12.3116 1.46261 8.23958 3.91036 5.02386L3.88209 5.06224C6.1275 2.02595 9.58868 0.0704901 13.4891 0.000165988L13.5 0ZM13.5 31.7333C19.7476 31.7333 24.8304 25.1237 24.8304 17C24.8304 8.87628 19.7476 2.26668 13.5 2.26668C7.25239 2.26668 2.16954 8.87628 2.16954 17C2.16954 25.1237 7.25236 31.7333 13.5 31.7333ZM7.3723 19.2364L5.84037 17.6346L14.107 8.99107L15.6389 10.5928L7.3723 19.2364ZM12.1993 22.8479L10.6674 21.2462L15.4944 16.199L17.0263 17.8008L12.1993 22.8479Z" fill="#170000" fill-opacity="0.5"/>
</svg>
