<svg width="40" height="31" viewBox="0 0 40 31" fill="none" xmlns="http://www.w3.org/2000/svg">
<mask id="mask0_588_3419" style="mask-type:alpha" maskUnits="userSpaceOnUse" x="-3" y="-8" width="46" height="46">
<rect x="-2.77344" y="-7.5" width="45" height="45" fill="#D9D9D9"/>
</mask>
<g mask="url(#mask0_588_3419)">
<path d="M6.637 30.3247C6.23837 30.3247 5.90445 30.1899 5.63523 29.9204C5.36602 29.6509 5.23141 29.3169 5.23141 28.9185V27.0435H4.72656C3.4165 27.0435 2.30775 26.5897 1.40031 25.6823C0.492812 24.7749 0.0390625 23.6661 0.0390625 22.356V12.981C0.0390625 11.5989 0.510813 10.4721 1.45431 9.60066C2.39781 8.72928 3.48855 8.2936 4.72652 8.2936V4.9042C4.72652 3.59414 5.18023 2.48539 6.08767 1.57795C6.99511 0.670517 8.10388 0.216797 9.41397 0.216797H30.0391C31.3492 0.216797 32.4579 0.670517 33.3654 1.57795C34.2728 2.48539 34.7266 3.59414 34.7266 4.9042V8.2936C36.0126 8.2936 37.1153 8.7383 38.0348 9.6277C38.9543 10.5171 39.414 11.6349 39.414 12.981V22.356C39.414 23.6661 38.9603 24.7749 38.0529 25.6823C37.1454 26.5897 36.0366 27.0435 34.7266 27.0435H34.2217V28.9185C34.2217 29.3169 34.0931 29.6509 33.8359 29.9204C33.5787 30.1899 33.2508 30.3247 32.8522 30.3247C32.4536 30.3247 32.1195 30.1899 31.8498 29.9204C31.5802 29.6509 31.4454 29.3169 31.4454 28.9185V27.0435H8.04386V28.9185C8.04386 29.3175 7.90903 29.6516 7.63938 29.9208C7.36972 30.1901 7.03559 30.3247 6.637 30.3247ZM4.72656 24.231H34.7266C35.2578 24.231 35.7031 24.0514 36.0625 23.692C36.4219 23.3326 36.6016 22.8873 36.6016 22.356V12.981C36.6016 12.4498 36.4219 12.0045 36.0625 11.6451C35.7031 11.2857 35.2578 11.106 34.7266 11.106C34.1953 11.106 33.75 11.2857 33.3906 11.6451C33.0312 12.0045 32.8516 12.4498 32.8516 12.981V20.0123H6.60156V12.981C6.60156 12.4498 6.42188 12.0045 6.0625 11.6451C5.70312 11.2857 5.25781 11.106 4.72656 11.106C4.19531 11.106 3.75 11.2857 3.39062 11.6451C3.03125 12.0045 2.85156 12.4498 2.85156 12.981V22.356C2.85156 22.8873 3.03125 23.3326 3.39062 23.692C3.75 24.0514 4.19531 24.231 4.72656 24.231ZM9.41401 17.1998H30.0391V12.981C30.0391 12.2214 30.211 11.5279 30.5547 10.9005C30.8985 10.2731 31.3516 9.74791 31.9141 9.32484V4.9042C31.9141 4.37295 31.7344 3.92764 31.375 3.56827C31.0157 3.20889 30.5704 3.0292 30.0391 3.0292H9.41401C8.88276 3.0292 8.43745 3.20889 8.07808 3.56827C7.7187 3.92764 7.53902 4.37295 7.53902 4.9042V9.32484C8.10152 9.74791 8.55464 10.2731 8.89839 10.9005C9.24214 11.5279 9.41401 12.2214 9.41401 12.981V17.1998Z" fill="#170000" fill-opacity="0.5"/>
</g>
</svg>
