<svg width="24" height="35" viewBox="0 0 24 35" fill="none" xmlns="http://www.w3.org/2000/svg">
<mask id="mask0_588_3435" style="mask-type:alpha" maskUnits="userSpaceOnUse" x="-3" y="-1" width="30" height="40">
<rect x="-2.10547" y="-1" width="28.2353" height="40" fill="#D9D9D9"/>
</mask>
<g mask="url(#mask0_588_3435)">
<path d="M10.6558 19.2357H13.3707L13.3707 3.79967C13.3707 3.36026 13.2391 2.98779 12.9759 2.68228C12.7127 2.37678 12.3918 2.22403 12.0132 2.22403C11.6346 2.22403 11.3138 2.37678 11.0506 2.68228C10.7874 2.98779 10.6558 3.36026 10.6558 3.79967L10.6558 19.2357ZM3.71006 24.4353H20.3164V21.7042C20.3164 21.5816 20.2825 21.481 20.2146 21.4022C20.1467 21.3234 20.06 21.284 19.9544 21.284H4.07209C3.9665 21.284 3.87977 21.3234 3.81188 21.4022C3.744 21.481 3.71006 21.5816 3.71006 21.7042V24.4353ZM2.38882 32.6286H5.36168V29.5561C5.36168 29.2659 5.44628 29.0227 5.61547 28.8264C5.78465 28.6301 5.99429 28.5319 6.24441 28.5319C6.49451 28.5319 6.70403 28.6301 6.87297 28.8264C7.04189 29.0227 7.12635 29.2659 7.12635 29.5561V32.6286H11.1309V29.5561C11.1309 29.2659 11.2155 29.0227 11.3847 28.8264C11.5539 28.6301 11.7635 28.5319 12.0136 28.5319C12.2637 28.5319 12.4733 28.6301 12.6422 28.8264C12.8111 29.0227 12.8956 29.2659 12.8956 29.5561V32.6286H16.9001V29.5561C16.9001 29.2659 16.9847 29.0227 17.1539 28.8264C17.3231 28.6301 17.5328 28.5319 17.7829 28.5319C18.033 28.5319 18.2425 28.6301 18.4114 28.8264C18.5803 29.0227 18.6648 29.2659 18.6648 29.5561V32.6286H21.6376C21.7583 32.6286 21.8564 32.5739 21.9318 32.4644C22.0072 32.355 22.0261 32.2346 21.9884 32.1033L20.6761 26.4836H3.35035L2.03812 32.1033C2.00041 32.2346 2.01926 32.355 2.09468 32.4644C2.17011 32.5739 2.26816 32.6286 2.38882 32.6286ZM21.7282 34.6768H2.29832C1.63166 34.6768 1.08943 34.3678 0.671647 33.7499C0.253843 33.1319 0.135441 32.443 0.316441 31.6832L1.94541 24.6585V21.6254C1.94541 20.9619 2.14563 20.3977 2.54606 19.933C2.94651 19.4681 3.43256 19.2357 4.00421 19.2357H8.89109L8.89109 12.4211V3.79967C8.89109 2.79303 9.19463 1.93739 9.80171 1.23275C10.4088 0.528104 11.146 0.175781 12.0132 0.175781C12.8805 0.175781 13.6177 0.528104 14.2248 1.23275C14.8318 1.93739 15.1354 2.79303 15.1354 3.79967L15.1354 19.2357H20.0223C20.5939 19.2357 21.08 19.4681 21.4804 19.933C21.8808 20.3977 22.0811 20.9619 22.0811 21.6254V24.6585L23.71 31.7094C23.9272 32.4605 23.8239 33.1428 23.4001 33.7564C22.9762 34.37 22.4189 34.6768 21.7282 34.6768Z" fill="#170000" fill-opacity="0.5"/>
</g>
</svg>
