<svg width="25" height="30" viewBox="0 0 25 30" fill="none" xmlns="http://www.w3.org/2000/svg">
<mask id="mask0_588_3433" style="mask-type:alpha" maskUnits="userSpaceOnUse" x="-6" y="-4" width="37" height="38">
<rect x="-5.62305" y="-3.02637" width="36.0532" height="36.0532" fill="#D9D9D9"/>
</mask>
<g mask="url(#mask0_588_3433)">
<path d="M3.47724 29.2706C2.71842 29.2706 2.07613 29.0077 1.55038 28.4819C1.02461 27.9561 0.761719 27.3138 0.761719 26.555V3.44407C0.761719 2.68525 1.02461 2.04296 1.55038 1.51718C2.07613 0.991404 2.71842 0.728516 3.47724 0.728516H24.046V2.9818H20.2904V5.35065C20.2904 5.72716 20.1631 6.04276 19.9084 6.29746C19.6537 6.55216 19.3381 6.67951 18.9616 6.67951H8.09945C7.72295 6.67951 7.40734 6.55216 7.15264 6.29746C6.89794 6.04276 6.77059 5.72716 6.77059 5.35065V2.9818H3.47724C3.34242 2.9818 3.23166 3.02514 3.14499 3.11182C3.05831 3.1985 3.01497 3.30925 3.01497 3.44407V26.555C3.01497 26.6898 3.05831 26.8006 3.14499 26.8873C3.23166 26.9739 3.34242 27.0173 3.47724 27.0173H9.82122C8.89871 26.4087 8.15964 25.6307 7.60402 24.6831C7.0484 23.7356 6.77059 22.6455 6.77059 21.4129V14.6529H20.2904V21.4129C20.2904 22.6455 20.0126 23.7356 19.457 24.6831C18.9013 25.6307 18.1623 26.4087 17.2398 27.0173H24.046V29.2706H3.47724ZM13.5305 25.9195C14.7823 25.9195 15.8464 25.4814 16.7227 24.6051C17.599 23.7288 18.0371 22.6647 18.0371 21.4129V16.9062H9.02384V21.4129C9.02384 22.6647 9.46199 23.7288 10.3383 24.6051C11.2146 25.4814 12.2786 25.9195 13.5305 25.9195ZM13.5305 11.9951C13.8983 11.9951 14.2118 11.8656 14.4708 11.6066C14.7299 11.3475 14.8594 11.0341 14.8594 10.6662C14.8594 10.2984 14.7299 9.98497 14.4708 9.72594C14.2118 9.46688 13.8983 9.33735 13.5305 9.33735C13.1627 9.33735 12.8492 9.46688 12.5902 9.72594C12.3311 9.98497 12.2016 10.2984 12.2016 10.6662C12.2016 11.0341 12.3311 11.3475 12.5902 11.6066C12.8492 11.8656 13.1627 11.9951 13.5305 11.9951Z" fill="#170000" fill-opacity="0.5"/>
</g>
</svg>
