<svg width="28" height="28" viewBox="0 0 28 28" fill="none" xmlns="http://www.w3.org/2000/svg">
<mask id="mask0_588_3437" style="mask-type:alpha" maskUnits="userSpaceOnUse" x="-3" y="-3" width="34" height="34">
<rect x="-2.87109" y="-2.5" width="33" height="33" fill="#D9D9D9"/>
</mask>
<g mask="url(#mask0_588_3437)">
<path d="M12.5977 27.4062V21.2239L7.78512 25.9677L6.33611 24.5187L12.5977 18.2572V15.0312H9.37167L3.11012 21.2927L1.66111 19.8437L6.4049 15.0312H0.222656V12.9688H6.4049L1.66111 8.15622L3.11012 6.70721L9.37167 12.9688H12.5977V9.74276L6.33611 3.48122L7.78512 2.03221L12.5977 6.77599V0.59375H14.6601V6.77599L19.4726 2.03221L20.9216 3.48122L14.6601 9.74276V12.9688H17.8861L24.1476 6.70721L25.5966 8.15622L20.8528 12.9688H27.0351V15.0312H20.8528L25.5966 19.8437L24.1476 21.2927L17.8861 15.0312H14.6601V18.2572L20.9216 24.5187L19.4726 25.9677L14.6601 21.2239V27.4062H12.5977Z" fill="#170000" fill-opacity="0.5"/>
</g>
</svg>
