<svg width="31" height="31" viewBox="0 0 31 31" fill="none" xmlns="http://www.w3.org/2000/svg">
<path d="M8.99931 0.000930174C10.4612 0.00458854 11.8396 0.36128 13.0562 0.990798L13.006 0.967143L13.0456 0.989155C16.059 2.72409 19.6503 3.78672 23.4792 3.88723L23.5086 3.88786H28.0971V13.9365H23.6276C19.8198 13.9387 16.2464 14.9484 13.155 16.7154L13.2606 16.6599C11.9914 17.4318 10.4589 17.8884 8.8205 17.8884H8.74736C3.90124 17.8168 0 13.84 0 8.94459C0 4.00467 3.97275 0 8.87334 0C8.91763 0 8.96185 0.000310078 9.00599 0.000992147L8.99935 0.00089907L8.99931 0.000930174ZM12.0583 2.80299C11.1673 2.34303 10.1148 2.07287 8.99978 2.07138H8.98526C5.21913 2.07138 2.16611 5.14897 2.16611 8.94533C2.16611 12.6734 5.11025 15.7083 8.78264 15.8163L8.79248 15.8165H8.82004C10.0754 15.8165 11.2495 15.4656 12.251 14.8556L12.2212 14.8724L12.2459 14.8586C15.5249 12.9758 19.4501 11.8652 23.6325 11.8633H26.043V5.9611H23.4715C19.2632 5.85141 15.3457 4.69369 11.9368 2.73879L12.0583 2.80299ZM28.0971 15.4715H26.0431V2.28946H28.097L28.0971 15.4715ZM8.77609 5.21575C10.7877 5.21575 12.4185 6.8596 12.4185 8.88739C12.4185 10.9152 10.7877 12.559 8.77609 12.559C6.76446 12.559 5.13378 10.9151 5.13378 8.88739C5.13609 6.86056 6.76545 5.21811 8.7759 5.21575H8.77609ZM8.77609 10.4885C9.65334 10.4885 10.3645 9.77169 10.3645 8.88739C10.3645 8.00309 9.65334 7.28623 8.77609 7.28623C7.89884 7.28623 7.1877 8.00309 7.1877 8.88739C7.18847 9.77138 7.89917 10.4878 8.77603 10.4885H8.77609ZM19.2376 9.92262H14.0069V7.85213H19.2376L19.2376 9.92262ZM10.0235 27.0523C8.01949 27.0436 6.34557 25.6295 5.92101 23.7377L5.91563 23.7091L4.24097 16.1519L6.24294 15.702L7.91351 23.2661C8.13187 24.2542 8.99415 24.9818 10.025 24.9818H10.0307H10.0304C10.2805 24.9788 10.5191 24.9341 10.7413 24.8542L10.726 24.859H10.7328C11.5903 24.563 12.1958 23.7575 12.1958 22.8095C12.1958 22.6386 12.1761 22.4723 12.1389 22.3129L12.1418 22.3276L10.7726 16.3922L12.7731 15.9229L14.1424 21.8582C14.2101 22.1426 14.2489 22.4691 14.2489 22.8047C14.2489 24.6567 13.0679 26.2307 11.4237 26.8032L11.3942 26.8122C10.9925 26.9569 10.5289 27.0424 10.0461 27.0468H10.0441L10.0235 27.0523ZM15.2721 31H15.2558C13.2378 31 11.511 29.7427 10.8045 27.9627L10.7931 27.9302L10.1084 26.2241L12.0132 25.4498L12.6978 27.1614C13.1092 28.2051 14.1025 28.9296 15.2637 28.9296C15.2695 28.9296 15.2754 28.9296 15.2812 28.9296H15.4461C16.9812 28.9296 18.2257 27.675 18.2257 26.1275V22.7181V22.7043C18.2257 20.3182 20.1446 18.384 22.5116 18.384C24.8851 18.3871 26.8082 20.3257 26.8113 22.7178V22.7181C26.8113 22.7222 26.8113 22.7271 26.8113 22.7319C26.8113 24.6982 28.3922 26.2923 30.3427 26.2931H31V28.3636H30.3427C27.2572 28.3636 24.7559 25.8422 24.7559 22.7319V22.7144V22.7154C24.7559 21.469 23.7536 20.4585 22.5171 20.4585C21.2807 20.4585 20.2783 21.4689 20.2783 22.7153V26.1275C20.2783 28.8185 18.1142 31 15.4447 31L15.2721 31Z" fill="#170000" fill-opacity="0.5"/>
</svg>
