<svg width="36" height="28" viewBox="0 0 36 28" fill="none" xmlns="http://www.w3.org/2000/svg">
<mask id="mask0_588_3409" style="mask-type:alpha" maskUnits="userSpaceOnUse" x="-4" y="-8" width="45" height="44">
<rect x="-3.57422" y="-7.4668" width="43.5789" height="42.9333" fill="#D9D9D9"/>
</mask>
<g mask="url(#mask0_588_3409)">
<path d="M1.87151 27.8634C1.21504 27.8634 0.785549 27.5567 0.583027 26.9432C0.380506 26.3297 0.539963 25.8326 1.0614 25.452L16.8518 13.776V10.4218C16.8518 10.0411 16.9775 9.72232 17.2289 9.46547C17.4803 9.20861 17.7934 9.08019 18.1682 9.08019C19.0715 9.11 19.8345 8.81816 20.4572 8.20466C21.0799 7.59113 21.3913 6.83944 21.3913 5.94959C21.3913 5.08955 21.0799 4.35276 20.4572 3.73923C19.8345 3.12574 19.0866 2.81899 18.2136 2.81899C17.3406 2.81899 16.5928 3.12574 15.97 3.73923C15.3473 4.35276 15.0359 5.08955 15.0359 5.94959H12.3123C12.3123 4.33499 12.8862 2.96238 14.0339 1.83174C15.1815 0.701076 16.5747 0.135742 18.2136 0.135742C19.8525 0.135742 21.2457 0.68903 22.3934 1.79561C23.5411 2.90218 24.1149 4.25703 24.1149 5.86014C24.1149 7.22703 23.6959 8.4437 22.8578 9.51015C22.0198 10.5766 20.9256 11.2669 19.5754 11.5811V13.776L35.3658 25.452C35.8873 25.8326 36.0467 26.3297 35.8442 26.9432C35.6417 27.5567 35.2122 27.8634 34.5557 27.8634H1.87151ZM5.95695 25.1802H30.4703L18.2136 16.1153L5.95695 25.1802Z" fill="#170000" fill-opacity="0.5"/>
</g>
</svg>
