<svg width="29" height="36" viewBox="0 0 29 36" fill="none" xmlns="http://www.w3.org/2000/svg">
<path d="M26.0442 8.67132H16.3106V0.328746H26.0442V8.67132ZM18.6318 6.32348H23.7231V2.67658H18.6317L18.6318 6.32348ZM29 35.6713H13.3394V31.4186L14.6547 10.2412C14.8014 8.05728 16.583 6.34025 18.7637 6.32819H23.5837C25.7673 6.33853 27.551 8.05598 27.6978 10.2283L27.6985 10.2412L28.9999 31.5078L29 35.6713ZM15.6606 33.3235H26.6787V31.5438L25.3804 10.3868C25.3194 9.42686 24.5375 8.67086 23.5797 8.66509H18.7711C17.8144 8.67258 17.0345 9.42812 16.9747 10.3815L16.9744 10.3868L15.6606 31.5282L15.6606 33.3235ZM6.76253 36H4.44129V24.2359L0 13.7489V0H2.32125V13.2668L6.76253 23.7537V36ZM0 0.328746H9.73373V13.1792H0V0.328746ZM7.41251 2.67655H2.32115V10.8313H7.41251V2.67655Z" fill="#170000" fill-opacity="0.5"/>
</svg>
