<svg width="46" height="27" viewBox="0 0 46 27" fill="none" xmlns="http://www.w3.org/2000/svg">
<mask id="mask0_588_3401" style="mask-type:alpha" maskUnits="userSpaceOnUse" x="-10" y="-20" width="66" height="67">
<rect x="-10" y="-19.6553" width="66" height="66" fill="#D9D9D9"/>
</mask>
<g mask="url(#mask0_588_3401)">
<path d="M0 26.3447V20.9447C0 18.5797 0.851329 16.5551 2.55399 14.871C4.25669 13.1868 6.30353 12.3447 8.69453 12.3447H31.5429V9.44473C31.5429 8.37474 31.1562 7.45724 30.3827 6.69224C29.6093 5.92723 28.6817 5.54473 27.6 5.54473H19.967C18.8853 5.54473 17.9577 5.92723 17.1843 6.69224C16.4109 7.45724 16.0242 8.37474 16.0242 9.44473H13.3956C13.3956 7.63916 14.0345 6.10442 15.3123 4.84052C16.59 3.57666 18.1416 2.94473 19.967 2.94473H27.6C29.4254 2.94473 30.977 3.57666 32.2547 4.84052C33.5325 6.10442 34.1714 7.63916 34.1714 9.44473V19.7447C35.2532 19.7447 36.1808 19.3622 36.9542 18.5972C37.7276 17.8322 38.1143 16.9147 38.1143 15.8448V6.84473C38.1143 5.03916 38.7532 3.50442 40.031 2.24052C41.3087 0.976656 42.8603 0.344727 44.6857 0.344727H46V2.94473H44.6857C43.604 2.94473 42.6764 3.32723 41.903 4.09224C41.1296 4.85724 40.7429 5.77474 40.7429 6.84473V15.8448C40.7429 17.6503 40.104 19.185 38.8262 20.4489C37.5484 21.7128 35.9968 22.3448 34.1714 22.3448V26.3447H0ZM2.62857 23.7447H31.5429V14.9447H8.69453C7.02639 14.9447 5.59835 15.5322 4.41041 16.7072C3.22252 17.8822 2.62857 19.2947 2.62857 20.9447V23.7447Z" fill="#170000" fill-opacity="0.5"/>
</g>
</svg>
