<svg width="29" height="32" viewBox="0 0 29 32" fill="none" xmlns="http://www.w3.org/2000/svg">
<mask id="mask0_588_3447" style="mask-type:alpha" maskUnits="userSpaceOnUse" x="-6" y="-3" width="39" height="38">
<rect x="-5.53711" y="-3" width="38" height="38" fill="#D9D9D9"/>
</mask>
<g mask="url(#mask0_588_3447)">
<path d="M4.75391 26.2922V6.75945L0.399779 0.958984H22.475V5.31315H25.6416C26.4287 5.31315 27.1025 5.5934 27.663 6.1539C28.2236 6.7144 28.5038 7.3882 28.5038 8.1753V15.9093C28.5038 16.6964 28.2236 17.3702 27.663 17.9307C27.1025 18.4912 26.4287 18.7714 25.6416 18.7714H22.475V26.2922H4.75391ZM7.12887 23.9173H20.1V3.33394H5.13446L7.12887 5.92519V23.9173ZM22.475 16.3965H25.6416C25.7837 16.3965 25.9005 16.3508 25.9918 16.2594C26.0832 16.1681 26.1289 16.0514 26.1289 15.9093V8.1753C26.1289 8.0332 26.0832 7.91647 25.9918 7.82511C25.9005 7.73375 25.7837 7.68807 25.6416 7.68807H22.475V16.3965ZM14.0712 21.7249H17.9077V5.52631H14.0712V21.7249ZM0.00390625 31.0422V28.6673H26.9205V31.0422H0.00390625Z" fill="#170000" fill-opacity="0.5"/>
</g>
</svg>
