<svg width="30" height="32" viewBox="0 0 30 32" fill="none" xmlns="http://www.w3.org/2000/svg">
<mask id="mask0_588_3449" style="mask-type:alpha" maskUnits="userSpaceOnUse" x="-6" y="-4" width="40" height="40">
<rect x="-5.53711" y="-3.5" width="39" height="39" fill="#D9D9D9"/>
</mask>
<g mask="url(#mask0_588_3449)">
<path d="M0.212891 31.4374V28.9999H3.1816V23.6124C2.28579 23.3499 1.56706 22.8565 1.02539 22.1321C0.483724 21.4077 0.212891 20.5824 0.212891 19.6562V7.59377H8.58778V19.6562C8.58778 20.577 8.31696 21.401 7.77532 22.1281C7.23365 22.8551 6.5149 23.3499 5.61906 23.6124V28.9999H8.58778V31.4374H0.212891ZM2.65035 15.2188H6.15036V10.0312H2.65035V15.2188ZM4.40035 21.4062C4.8962 21.4062 5.31182 21.2385 5.64722 20.9031C5.98264 20.5677 6.15036 20.1521 6.15036 19.6562V17.6562H2.65035V19.6562C2.65035 20.1521 2.81805 20.5677 3.15345 20.9031C3.48888 21.2385 3.90451 21.4062 4.40035 21.4062ZM15.5253 31.4374C14.855 31.4374 14.2812 31.1987 13.8039 30.7214C13.3265 30.244 13.0879 29.6702 13.0879 28.9999V13.4812C13.0879 12.9549 13.2441 12.4843 13.5566 12.0693C13.8691 11.6543 14.267 11.3562 14.7503 11.175L16.2785 10.6062C16.8243 10.4083 17.2415 10.1416 17.5301 9.80621C17.8186 9.47081 17.9629 8.97288 17.9629 8.31243V2.19048C17.9629 1.78234 18.1006 1.44022 18.3762 1.16413C18.6517 0.888044 18.9931 0.75 19.4004 0.75H23.0253C23.4326 0.75 23.774 0.888044 24.0495 1.16413C24.325 1.44022 24.4628 1.78234 24.4628 2.19048V8.31243C24.4628 8.97288 24.6096 9.47081 24.9034 9.80621C25.1972 10.1416 25.617 10.4083 26.1628 10.6062L27.7066 11.175C28.1899 11.3571 28.5826 11.6555 28.8846 12.0702C29.1867 12.4849 29.3378 12.9552 29.3378 13.4812V28.9999C29.3378 29.6702 29.0991 30.244 28.6218 30.7214C28.1444 31.1987 27.5706 31.4374 26.9003 31.4374H15.5253ZM20.4003 4.87494H22.0253V3.18746H20.4003V4.87494ZM15.5253 16.5625H26.9003V13.4812L25.3566 12.9124C24.3274 12.5333 23.5149 11.9713 22.9191 11.2265C22.3232 10.4817 22.0253 9.52702 22.0253 8.36243V7.3124H20.4003V8.36243C20.4003 9.52702 20.1024 10.4817 19.5066 11.2265C18.9107 11.9713 18.0982 12.5333 17.0691 12.9124L15.5253 13.4812V16.5625ZM15.5253 28.9999H26.9003V25.2186H15.5253V28.9999ZM15.5253 22.7812H26.9003V18.9999H15.5253V22.7812Z" fill="#170000" fill-opacity="0.5"/>
</g>
</svg>
