<svg width="29" height="36" viewBox="0 0 29 36" fill="none" xmlns="http://www.w3.org/2000/svg">
<mask id="mask0_588_3420" style="mask-type:alpha" maskUnits="userSpaceOnUse" x="-7" y="-2" width="40" height="40">
<rect x="-6.77344" y="-1.5752" width="39.1504" height="39.1504" fill="#D9D9D9"/>
</mask>
<g mask="url(#mask0_588_3420)">
<path d="M3.5172 35.1286C2.70366 35.1286 2.00881 34.8405 1.43264 34.2643C0.856454 33.6881 0.568359 32.9933 0.568359 32.1797V3.82091C0.568359 3.00737 0.856454 2.31252 1.43264 1.73636C2.00881 1.16017 2.70366 0.87207 3.5172 0.87207H18.8259C19.6394 0.87207 20.3343 1.16017 20.9105 1.73636C21.4866 2.31252 21.7747 3.00737 21.7747 3.82091V9.78123H19.3279V7.80487H3.01522V28.1958H19.3279V26.2194H21.7747V32.1797C21.7747 32.9933 21.4866 33.6881 20.9105 34.2643C20.3343 34.8405 19.6394 35.1286 18.8259 35.1286H3.5172ZM3.01522 30.6426V32.1797C3.01522 32.3052 3.0675 32.4203 3.17206 32.5249C3.27665 32.6294 3.3917 32.6817 3.5172 32.6817H18.8259C18.9514 32.6817 19.0664 32.6294 19.171 32.5249C19.2756 32.4203 19.3279 32.3052 19.3279 32.1797V30.6426H3.01522ZM17.6151 23.9607L11.2469 17.5925L12.9659 15.8734L17.6151 20.5226L26.8631 11.2745L28.5821 12.9936L17.6151 23.9607ZM3.01522 5.35805H19.3279V3.82091C19.3279 3.69541 19.2756 3.58037 19.171 3.47578C19.0664 3.37121 18.9514 3.31893 18.8259 3.31893H3.5172C3.3917 3.31893 3.27665 3.37121 3.17206 3.47578C3.0675 3.58037 3.01522 3.69541 3.01522 3.82091V5.35805Z" fill="#170000" fill-opacity="0.5"/>
</g>
</svg>
