<svg width="32" height="32" viewBox="0 0 32 32" fill="none" xmlns="http://www.w3.org/2000/svg">
<path d="M3.78312 0H28.2169C30.3053 0.0024375 31.9976 1.69469 32 3.78287V28.2169C31.9976 30.3053 30.3053 31.9976 28.2172 32H3.78312C1.69481 31.9976 0.0025 30.3053 0 28.2171V3.78316C0.0025 1.69475 1.69478 0.00240625 3.78294 0H3.78312ZM28.2169 29.8667C29.1277 29.8658 29.8658 29.1277 29.8667 28.217V3.78309C29.8658 2.87228 29.1277 2.13412 28.217 2.13331H3.78312C2.87231 2.13409 2.13416 2.87225 2.13334 3.783V28.2168C2.13416 29.1277 2.87231 29.8658 3.78303 29.8666H3.78312L28.2169 29.8667ZM5.43288 5.43291H26.5671V26.5671H5.43288V5.43291ZM24.4338 7.56622H7.56619V24.4338H24.4337L24.4338 7.56622ZM16 12.2168C18.0894 12.2168 19.7831 13.9106 19.7831 16C19.7831 18.0893 18.0894 19.7831 16 19.7831C13.9106 19.7831 12.2169 18.0893 12.2169 16C12.2193 13.9116 13.9116 12.2193 15.9998 12.2168H16ZM16 17.6498C16.9112 17.6498 17.6498 16.9112 17.6498 16C17.6498 15.0888 16.9112 14.3502 16 14.3502C15.0888 14.3502 14.3502 15.0888 14.3502 16C14.351 16.9108 15.0892 17.649 15.9999 17.6498H16ZM17.0667 13.2835H14.9333V10.5671H17.0667V13.2835ZM17.0667 21.4329H14.9333V18.7164H17.0667V21.4329ZM13.12 15.5719L10.7591 14.2066L11.8272 12.3577L14.1881 13.723L13.12 15.5719ZM20.1742 19.6394L17.8133 18.2741L18.8815 16.4252L21.2423 17.7906L20.1742 19.6394ZM18.88 15.5719L17.8133 13.7259L20.1742 12.3606L21.2423 14.2094L18.88 15.5719ZM11.8258 19.6395L10.7591 17.7934L13.12 16.4281L14.1881 18.277L11.8258 19.6395ZM28.2169 12.9992H25.5004V10.8658H28.2169V12.9992ZM28.2169 22.4996H25.5004V20.3662H28.2169V22.4996Z" fill="#170000" fill-opacity="0.5"/>
</svg>
