<svg width="33" height="36" viewBox="0 0 33 36" fill="none" xmlns="http://www.w3.org/2000/svg">
<mask id="mask0_588_3422" style="mask-type:alpha" maskUnits="userSpaceOnUse" x="-4" y="-2" width="41" height="40">
<rect x="-3.62305" y="-2" width="40" height="40" fill="#D9D9D9"/>
</mask>
<g mask="url(#mask0_588_3422)">
<path d="M9.50126 27.1666C7.6829 27.1666 6.27961 26.4764 5.29139 25.0961C4.30314 23.7158 3.83144 22.0822 3.8763 20.1955V20.0512L2.99809 18.7018C2.56434 18.0266 2.04672 16.877 1.44522 15.2531C0.843719 13.6292 0.542969 11.767 0.542969 9.66663C0.542969 7.04057 1.17384 4.85629 2.43559 3.11379C3.69734 1.37126 5.28868 0.5 7.20959 0.5C9.23948 0.5 10.8581 1.43643 12.0653 3.30929C13.2726 5.18213 13.8762 7.30124 13.8762 9.66663C13.8762 11.2029 13.6513 12.6703 13.2015 14.0689C12.7517 15.4674 12.3388 16.61 11.9627 17.4967L12.5044 18.391C12.7801 18.8547 13.0776 19.4647 13.3971 20.2211C13.7165 20.9775 13.8762 21.7233 13.8762 22.4583C13.8762 23.8066 13.4633 24.9283 12.6374 25.8236C11.8116 26.7189 10.7662 27.1666 9.50126 27.1666ZM5.43076 17.8141L9.51726 16.9135C9.89976 16.0246 10.3052 14.9279 10.7336 13.6234C11.1621 12.3189 11.3763 11 11.3763 9.66663C11.3763 7.93585 10.9863 6.39204 10.2064 5.03521C9.42647 3.67838 8.42754 2.99996 7.20959 2.99996C5.99165 2.99996 4.99272 3.67838 4.2128 5.03521C3.43289 6.39204 3.04293 7.93585 3.04293 9.66663C3.04293 11.3418 3.294 12.9065 3.79614 14.3605C4.29827 15.8146 4.84315 16.9658 5.43076 17.8141ZM9.50126 24.6666C10.0397 24.6666 10.4868 24.4668 10.8426 24.0673C11.1984 23.6677 11.3763 23.1314 11.3763 22.4583C11.3763 21.9861 11.2571 21.4733 11.0189 20.9198C10.7806 20.3664 10.497 19.8312 10.1679 19.314L6.37626 20.1794C6.37626 21.4615 6.63268 22.5299 7.14551 23.3846C7.65832 24.2393 8.44357 24.6666 9.50126 24.6666ZM23.2513 35.4999C21.9863 35.4999 20.9409 35.0523 20.1151 34.157C19.2892 33.2617 18.8763 32.1399 18.8763 30.7916C18.8763 30.0566 19.036 29.3109 19.3555 28.5545C19.6749 27.7981 19.9725 27.188 20.2481 26.7243L20.7898 25.8301C20.4244 24.954 20.0141 23.8141 19.559 22.4102C19.1039 21.0063 18.8763 19.5363 18.8763 18C18.8763 15.6346 19.4799 13.5155 20.6872 11.6426C21.8945 9.76976 23.513 8.83333 25.5429 8.83333C27.4638 8.83333 29.0552 9.7046 30.3169 11.4471C31.5787 13.1896 32.2096 15.3739 32.2096 18C32.2096 20.1003 31.9115 21.9529 31.3153 23.5576C30.7192 25.1623 30.1989 26.3129 29.7544 27.0095L28.8762 28.3845V28.5448C28.904 30.3995 28.4254 32.0224 27.4403 33.4134C26.4553 34.8044 25.0589 35.4999 23.2513 35.4999ZM27.2576 26.2436C27.9628 25.1389 28.5477 23.9252 29.0125 22.6025C29.4772 21.2799 29.7096 19.7457 29.7096 18C29.7096 16.2692 29.3196 14.7254 28.5397 13.3685C27.7598 12.0117 26.7609 11.3333 25.5429 11.3333C24.325 11.3333 23.3261 12.0117 22.5461 13.3685C21.7662 14.7254 21.3763 16.2692 21.3763 18C21.3763 19.3333 21.5932 20.6453 22.0269 21.9359C22.4607 23.2265 22.8635 24.3301 23.2353 25.2468L27.2576 26.2436ZM23.2513 33C24.2876 33 25.0675 32.5779 25.591 31.7339C26.1145 30.8899 26.3763 29.8536 26.3763 28.625L22.6006 27.6313C22.3464 28.0843 22.0787 28.5902 21.7978 29.149C21.5168 29.7078 21.3763 30.2553 21.3763 30.7916C21.3763 31.3579 21.5552 31.8675 21.9131 32.3205C22.271 32.7735 22.7171 33 23.2513 33Z" fill="#170000" fill-opacity="0.5"/>
</g>
</svg>
