<svg width="27" height="29" viewBox="0 0 27 29" fill="none" xmlns="http://www.w3.org/2000/svg">
<mask id="mask0_588_3448" style="mask-type:alpha" maskUnits="userSpaceOnUse" x="-6" y="-4" width="39" height="38">
<rect x="-5.53711" y="-4" width="38" height="38" fill="#D9D9D9"/>
</mask>
<g mask="url(#mask0_588_3448)">
<path d="M7.92232 18.9731C7.37306 18.9731 6.90559 18.7809 6.51992 18.3964C6.13424 18.0119 5.94141 17.545 5.94141 16.9958C5.94141 16.4465 6.13365 15.979 6.51814 15.5934C6.90262 15.2077 7.36949 15.0148 7.91875 15.0148C8.46801 15.0148 8.93548 15.2071 9.32115 15.5916C9.70682 15.976 9.89966 16.4429 9.89966 16.9922C9.89966 17.5414 9.70742 18.0089 9.32293 18.3946C8.93845 18.7803 8.47157 18.9731 7.92232 18.9731ZM13.464 23.7231C12.9147 23.7231 12.4473 23.5309 12.0616 23.1464C11.6759 22.7619 11.4831 22.295 11.4831 21.7458C11.4831 21.1965 11.6753 20.729 12.0598 20.3434C12.4443 19.9577 12.9112 19.7648 13.4604 19.7648C14.0097 19.7648 14.4771 19.9571 14.8628 20.3416C15.2485 20.726 15.4413 21.1929 15.4413 21.7422C15.4413 22.2914 15.2491 22.7589 14.8646 23.1446C14.4801 23.5303 14.0132 23.7231 13.464 23.7231ZM7.92232 28.4731C7.37306 28.4731 6.90559 28.2809 6.51992 27.8964C6.13424 27.5119 5.94141 27.045 5.94141 26.4958C5.94141 25.9465 6.13365 25.479 6.51814 25.0934C6.90262 24.7077 7.36949 24.5148 7.91875 24.5148C8.46801 24.5148 8.93548 24.7071 9.32115 25.0916C9.70682 25.476 9.89966 25.9429 9.89966 26.4922C9.89966 27.0414 9.70742 27.5089 9.32293 27.8946C8.93845 28.2803 8.47157 28.4731 7.92232 28.4731ZM19.0056 18.9731C18.4564 18.9731 17.9889 18.7809 17.6033 18.3964C17.2176 18.0119 17.0247 17.545 17.0247 16.9958C17.0247 16.4465 17.217 15.979 17.6015 15.5934C17.986 15.2077 18.4528 15.0148 19.0021 15.0148C19.5513 15.0148 20.0188 15.2071 20.4045 15.5916C20.7902 15.976 20.983 16.4429 20.983 16.9922C20.983 17.5414 20.7908 18.0089 20.4063 18.3946C20.0218 18.7803 19.5549 18.9731 19.0056 18.9731ZM19.0056 28.4731C18.4564 28.4731 17.9889 28.2809 17.6033 27.8964C17.2176 27.5119 17.0247 27.045 17.0247 26.4958C17.0247 25.9465 17.217 25.479 17.6015 25.0934C17.986 24.7077 18.4528 24.5148 19.0021 24.5148C19.5513 24.5148 20.0188 24.7071 20.4045 25.0916C20.7902 25.476 20.983 25.9429 20.983 26.4922C20.983 27.0414 20.7908 27.5089 20.4063 27.8946C20.0218 28.2803 19.5549 28.4731 19.0056 28.4731ZM24.5473 23.7231C23.9981 23.7231 23.5306 23.5309 23.1449 23.1464C22.7592 22.7619 22.5664 22.295 22.5664 21.7458C22.5664 21.1965 22.7586 20.729 23.1431 20.3434C23.5276 19.9577 23.9945 19.7648 24.5438 19.7648C25.093 19.7648 25.5605 19.9571 25.9461 20.3416C26.3318 20.726 26.5247 21.1929 26.5247 21.7422C26.5247 22.2914 26.3324 22.7589 25.9479 23.1446C25.5634 23.5303 25.0966 23.7231 24.5473 23.7231ZM2.38065 23.7231C1.83139 23.7231 1.36392 23.5309 0.97825 23.1464C0.592576 22.7619 0.39974 22.295 0.39974 21.7458C0.39974 21.1965 0.591982 20.729 0.976469 20.3434C1.36095 19.9577 1.82783 19.7648 2.37709 19.7648C2.92634 19.7648 3.39381 19.9571 3.77948 20.3416C4.16516 20.726 4.35799 21.1929 4.35799 21.7422C4.35799 22.2914 4.16575 22.7589 3.78126 23.1446C3.39678 23.5303 2.92991 23.7231 2.38065 23.7231ZM2.8661 4.86025H24.0583C24.2004 4.86025 24.3171 4.81457 24.4085 4.72321C24.4999 4.63186 24.5455 4.51512 24.5455 4.37302V2.66789H2.37887V4.37302C2.37887 4.51512 2.42455 4.63186 2.5159 4.72321C2.60726 4.81457 2.72399 4.86025 2.8661 4.86025ZM7.91444 9.42754H19.01C19.1115 9.42754 19.2028 9.39963 19.284 9.34382C19.3652 9.28798 19.4261 9.20931 19.4667 9.10782L20.094 7.23517H6.83045L7.45769 9.10782C7.4983 9.20931 7.5592 9.28798 7.6404 9.34382C7.7216 9.39963 7.81295 9.42754 7.91444 9.42754ZM7.91444 11.8025C7.2982 11.8025 6.74121 11.6234 6.24347 11.2651C5.74572 10.9068 5.39637 10.4333 5.19542 9.84466L4.32759 7.23517H2.8661C2.079 7.23517 1.4052 6.95492 0.844696 6.39442C0.284169 5.83392 0.00390625 5.16012 0.00390625 4.37302V0.292969H26.9205V4.37302C26.9205 5.16012 26.6402 5.83392 26.0797 6.39442C25.5192 6.95492 24.8454 7.23517 24.0583 7.23517H22.5968L21.5524 9.94208C21.3371 10.4907 20.9903 10.9379 20.5119 11.2837C20.0335 11.6296 19.4953 11.8025 18.8973 11.8025H7.91444Z" fill="#170000" fill-opacity="0.5"/>
</g>
</svg>
