<svg width="36" height="34" viewBox="0 0 36 34" fill="none" xmlns="http://www.w3.org/2000/svg">
<path d="M7.8131 14.3556H28.1869V17C28.1807 22.3388 23.6798 26.6651 18.1264 26.671H17.8742C12.3202 26.6651 7.81931 22.3387 7.8131 17.0005V17V14.3556ZM25.8288 16.6222H10.1712V17C10.1765 21.0873 13.6221 24.3993 17.8737 24.4044H18.1258C22.3779 24.3992 25.8235 21.0872 25.8288 17.0005V17L25.8288 16.6222ZM30.0105 16.6978H5.98954V14.4311H30.0105V16.6978ZM25.3964 34H10.6034L12.2777 24.3289L14.6043 24.7006L13.386 31.7334H22.6139L21.3956 24.696L23.7222 24.3243L25.3964 34ZM13.5039 6.63696e-05H22.5118C24.8201 0.00265621 26.6907 1.80067 26.6934 4.01936V12.6782C26.6907 14.8971 24.8201 16.6952 22.512 16.6977H13.5039C11.1956 16.6952 9.32501 14.8971 9.32224 12.6785V4.01956C9.32501 1.80067 11.1955 0.00258984 13.5037 0H13.5039L13.5039 6.63696e-05ZM22.5118 14.4311C23.5185 14.4303 24.3344 13.646 24.3353 12.6783V4.01963C24.3344 3.05186 23.5185 2.26757 22.5118 2.2667H13.5039C12.4971 2.26753 11.6812 3.05182 11.6803 4.01949V12.6782C11.6812 13.6459 12.4971 14.4302 13.5038 14.4311H13.5039H22.5118ZM10.5013 6.58848H7.49866V4.32184H10.5013V6.58848ZM22.496 6.58848H19.4934V4.32184H22.496V6.58848ZM36 34H0V31.7333H36L36 34Z" fill="#170000" fill-opacity="0.5"/>
</svg>
