<svg width="30" height="30" viewBox="0 0 30 30" fill="none" xmlns="http://www.w3.org/2000/svg">
<path d="M24.9066 7.56935H22.9066V5.04624C22.897 4.20196 22.2073 3.52052 21.3554 3.51387H11.824C12.0503 3.95936 12.184 4.48438 12.1867 5.04006V7.56935H10.1867V5.04624C10.1769 4.20199 9.48724 3.52052 8.63532 3.51387L8.63467 1.53237H21.3546C23.3055 1.54717 24.8833 3.10854 24.9013 5.03927V5.04097L24.9066 7.56935ZM11.1866 8.56011H0V0H1.99999V6.57861H11.1866L11.1866 8.56011ZM30 8.56011H23.9067V6.57861H28V0H30L30 8.56011ZM24.9067 30H10.1867V7.56935H12.1867L12.1866 28.0185H22.9066V7.56935H24.9066L24.9067 30ZM8.64005 1.53237C10.5979 1.53463 12.1844 3.10649 12.1867 5.04604V19.9076H5.09339V5.04624C5.09564 3.10649 6.68244 1.53463 8.64005 1.53237ZM10.1867 17.926L10.1867 5.04624C10.1867 4.19994 9.49422 3.51387 8.64002 3.51387C7.78583 3.51387 7.09335 4.19994 7.09335 5.04624V17.926H10.1867ZM23.9067 24.9538H11.6667V22.9723H23.9067L23.9067 24.9538Z" fill="#170000" fill-opacity="0.5"/>
</svg>
