<svg width="40" height="29" viewBox="0 0 40 29" fill="none" xmlns="http://www.w3.org/2000/svg">
<mask id="mask0_588_3411" style="mask-type:alpha" maskUnits="userSpaceOnUse" x="-2" y="-10" width="44" height="44">
<rect x="-1.77344" y="-9.5" width="43" height="43" fill="#D9D9D9"/>
</mask>
<g mask="url(#mask0_588_3411)">
<path d="M9.60384 18.0019L7.77083 16.1585C9.32591 14.6034 11.1181 13.3837 13.1475 12.4994C15.177 11.615 17.37 11.1729 19.7268 11.1729C22.0835 11.1729 24.2766 11.6133 26.306 12.4942C28.3354 13.3751 30.1276 14.5965 31.6827 16.1585L29.8497 18.0019C28.5358 16.688 27.0129 15.6578 25.2809 14.9113C23.549 14.1647 21.6976 13.7915 19.7268 13.7915C17.7559 13.7915 15.9045 14.1647 14.1726 14.9113C12.4406 15.6578 10.9177 16.688 9.60384 18.0019ZM1.99956 10.3873L0.15625 8.54394C2.65079 6.03561 5.56225 4.05501 8.89062 2.60214C12.219 1.14928 15.831 0.422852 19.7268 0.422852C23.6225 0.422852 27.2345 1.14928 30.5629 2.60214C33.8913 4.05501 36.8027 6.03561 39.2973 8.54394L37.4539 10.3873C35.1546 8.08799 32.4912 6.28886 29.4638 4.9899C26.4363 3.69094 23.1906 3.04146 19.7268 3.04146C16.2629 3.04146 13.0172 3.69094 9.98972 4.9899C6.96228 6.28886 4.29887 8.08799 1.99956 10.3873ZM19.7268 28.1248L18.1763 24.6448L14.6963 23.0943L18.1763 21.5439L19.7268 18.0639L21.2772 21.5439L24.7572 23.0943L21.2772 24.6448L19.7268 28.1248Z" fill="#170000" fill-opacity="0.5"/>
</g>
</svg>
