<svg width="53" height="28" viewBox="0 0 53 28" fill="none" xmlns="http://www.w3.org/2000/svg">
<path d="M7.238 24.544V21.046H0.484V18.89L8.008 9.188H9.658V18.846H11.594V21.046H9.658V24.544H7.238ZM2.948 18.846H7.502V12.884L2.948 18.846ZM24.804 15.304C24.804 16.5947 24.5546 17.746 24.056 18.758C23.572 19.7553 22.9046 20.54 22.054 21.112C21.218 21.684 20.2573 21.97 19.172 21.97C18.1013 21.97 17.1406 21.684 16.29 21.112C15.4393 20.54 14.7646 19.7553 14.266 18.758C13.782 17.746 13.54 16.5947 13.54 15.304C13.54 14.0133 13.782 12.8693 14.266 11.872C14.7646 10.86 15.4393 10.068 16.29 9.496C17.1406 8.90933 18.1013 8.616 19.172 8.616C20.2573 8.616 21.218 8.90933 22.054 9.496C22.9046 10.068 23.572 10.86 24.056 11.872C24.5546 12.8693 24.804 14.0133 24.804 15.304ZM22.34 15.304C22.34 14.424 22.208 13.654 21.944 12.994C21.68 12.3193 21.306 11.7987 20.822 11.432C20.338 11.0507 19.788 10.86 19.172 10.86C18.5413 10.86 17.984 11.0507 17.5 11.432C17.016 11.7987 16.6346 12.3193 16.356 12.994C16.092 13.654 15.96 14.424 15.96 15.304C15.96 16.184 16.092 16.954 16.356 17.614C16.6346 18.274 17.016 18.7947 17.5 19.176C17.984 19.5427 18.5413 19.726 19.172 19.726C19.788 19.726 20.3306 19.5427 20.8 19.176C21.284 18.7947 21.658 18.274 21.922 17.614C22.2006 16.954 22.34 16.184 22.34 15.304Z" fill="white"/>
<path d="M31.512 20.25V10.638H33.87L37.74 17.46H36.804L40.872 10.638H42.978L42.996 20.25H40.962V13.05L41.322 13.284L37.722 19.242H36.75L33.132 13.122L33.564 13.014V20.25H31.512ZM45.294 14.364V13.356L48.516 10.548C48.912 10.188 49.17 9.906 49.29 9.702C49.422 9.486 49.488 9.282 49.488 9.09C49.488 8.814 49.362 8.586 49.11 8.406C48.87 8.214 48.48 8.118 47.94 8.118C47.532 8.118 47.166 8.184 46.842 8.316C46.518 8.448 46.26 8.646 46.068 8.91L44.934 8.1C45.234 7.692 45.648 7.368 46.176 7.128C46.704 6.888 47.334 6.768 48.066 6.768C49.038 6.768 49.788 6.978 50.316 7.398C50.844 7.818 51.108 8.346 51.108 8.982C51.108 9.342 51.018 9.69 50.838 10.026C50.67 10.362 50.298 10.782 49.722 11.286L47.004 13.662L46.626 13.086H51.414V14.364H45.294Z" fill="white"/>
</svg>
