<svg width="70" height="22" viewBox="0 0 70 22" fill="none" xmlns="http://www.w3.org/2000/svg">
<path d="M19 21V18.7778C19 17.599 18.5259 16.4686 17.682 15.6351C16.8381 14.8016 15.6935 14.3333 14.5 14.3333H5.5C4.30653 14.3333 3.16193 14.8016 2.31802 15.6351C1.47411 16.4686 1 17.599 1 18.7778V21M14.5 5.44444C14.5 7.89904 12.4853 9.88889 10 9.88889C7.51472 9.88889 5.5 7.89904 5.5 5.44444C5.5 2.98985 7.51472 1 10 1C12.4853 1 14.5 2.98985 14.5 5.44444Z" stroke="white" stroke-width="2" stroke-linecap="round" stroke-linejoin="round"/>
<path d="M44 21V18.7778C44 17.599 43.5259 16.4686 42.682 15.6351C41.8381 14.8016 40.6935 14.3333 39.5 14.3333H30.5C29.3065 14.3333 28.1619 14.8016 27.318 15.6351C26.4741 16.4686 26 17.599 26 18.7778V21M39.5 5.44444C39.5 7.89904 37.4853 9.88889 35 9.88889C32.5147 9.88889 30.5 7.89904 30.5 5.44444C30.5 2.98985 32.5147 1 35 1C37.4853 1 39.5 2.98985 39.5 5.44444Z" stroke="white" stroke-width="2" stroke-linecap="round" stroke-linejoin="round"/>
<path d="M69 21V18.7778C69 17.599 68.5259 16.4686 67.682 15.6351C66.8381 14.8016 65.6935 14.3333 64.5 14.3333H55.5C54.3065 14.3333 53.1619 14.8016 52.318 15.6351C51.4741 16.4686 51 17.599 51 18.7778V21M64.5 5.44444C64.5 7.89904 62.4853 9.88889 60 9.88889C57.5147 9.88889 55.5 7.89904 55.5 5.44444C55.5 2.98985 57.5147 1 60 1C62.4853 1 64.5 2.98985 64.5 5.44444Z" stroke="white" stroke-width="2" stroke-linecap="round" stroke-linejoin="round"/>
</svg>
