<svg width="53" height="28" viewBox="0 0 53 28" fill="none" xmlns="http://www.w3.org/2000/svg">
<path d="M0.88 21.75C0.88 21.134 0.931333 20.5693 1.034 20.056C1.13667 19.528 1.31267 19.0293 1.562 18.56C1.826 18.0907 2.18533 17.6507 2.64 17.24C3.10933 16.8147 3.70333 16.4113 4.422 16.03C4.93533 15.7367 5.41933 15.48 5.874 15.26C6.32867 15.0253 6.732 14.798 7.084 14.578C7.436 14.3433 7.70733 14.094 7.898 13.83C8.10333 13.566 8.206 13.2653 8.206 12.928C8.206 12.6053 8.118 12.3047 7.942 12.026C7.766 11.7473 7.502 11.5273 7.15 11.366C6.798 11.19 6.37267 11.102 5.874 11.102C5.478 11.102 5.11133 11.1533 4.774 11.256C4.45133 11.3587 4.15067 11.498 3.872 11.674C3.608 11.8353 3.366 12.0187 3.146 12.224C2.926 12.4147 2.73533 12.6053 2.574 12.796L1.056 11.058C1.20267 10.882 1.43 10.684 1.738 10.464C2.06067 10.2293 2.442 10.002 2.882 9.782C3.33667 9.54733 3.85 9.35667 4.422 9.21C4.994 9.04867 5.61733 8.968 6.292 8.968C7.24533 8.968 8.05933 9.12933 8.734 9.452C9.40867 9.76 9.922 10.1927 10.274 10.75C10.6407 11.2927 10.824 11.9087 10.824 12.598C10.824 13.1407 10.714 13.6173 10.494 14.028C10.2887 14.4387 10.0173 14.8053 9.68 15.128C9.34267 15.436 8.98333 15.7073 8.602 15.942C8.23533 16.162 7.89067 16.36 7.568 16.536C6.996 16.8147 6.49733 17.0713 6.072 17.306C5.66133 17.5407 5.30933 17.7753 5.016 18.01C4.72267 18.23 4.48067 18.4647 4.29 18.714C4.09933 18.9487 3.938 19.2347 3.806 19.572H11.066V21.75H0.88ZM17.8382 25.028C16.7089 25.028 15.6969 24.7713 14.8022 24.258C13.9076 23.7593 13.2256 23.0773 12.7562 22.212L14.2082 20.826C14.6189 21.4567 15.1469 21.9553 15.7922 22.322C16.4376 22.7033 17.1269 22.894 17.8602 22.894C18.4616 22.894 18.9969 22.762 19.4662 22.498C19.9356 22.2487 20.3022 21.8967 20.5662 21.442C20.8449 20.9727 20.9842 20.4373 20.9842 19.836C20.9842 19.2493 20.8522 18.736 20.5882 18.296C20.3242 17.8413 19.9722 17.4967 19.5322 17.262C19.0922 17.0127 18.5862 16.888 18.0142 16.888C17.4569 16.888 16.9362 17.0127 16.4522 17.262C15.9682 17.5113 15.5722 17.8633 15.2642 18.318H13.1302L14.9122 9.188H22.5462V11.41H16.6722L15.8802 15.678C16.1296 15.414 16.4669 15.2013 16.8922 15.04C17.3176 14.864 17.8016 14.776 18.3442 14.776C19.3269 14.776 20.1996 14.996 20.9622 15.436C21.7396 15.8613 22.3482 16.448 22.7882 17.196C23.2429 17.944 23.4702 18.8093 23.4702 19.792C23.4702 20.8333 23.2209 21.7427 22.7222 22.52C22.2236 23.312 21.5489 23.928 20.6982 24.368C19.8476 24.808 18.8942 25.028 17.8382 25.028Z" fill="white"/>
<path d="M31.512 20.25V10.638H33.87L37.74 17.46H36.804L40.872 10.638H42.978L42.996 20.25H40.962V13.05L41.322 13.284L37.722 19.242H36.75L33.132 13.122L33.564 13.014V20.25H31.512ZM45.294 14.364V13.356L48.516 10.548C48.912 10.188 49.17 9.906 49.29 9.702C49.422 9.486 49.488 9.282 49.488 9.09C49.488 8.814 49.362 8.586 49.11 8.406C48.87 8.214 48.48 8.118 47.94 8.118C47.532 8.118 47.166 8.184 46.842 8.316C46.518 8.448 46.26 8.646 46.068 8.91L44.934 8.1C45.234 7.692 45.648 7.368 46.176 7.128C46.704 6.888 47.334 6.768 48.066 6.768C49.038 6.768 49.788 6.978 50.316 7.398C50.844 7.818 51.108 8.346 51.108 8.982C51.108 9.342 51.018 9.69 50.838 10.026C50.67 10.362 50.298 10.782 49.722 11.286L47.004 13.662L46.626 13.086H51.414V14.364H45.294Z" fill="white"/>
</svg>
