<svg width="53" height="28" viewBox="0 0 53 28" fill="none" xmlns="http://www.w3.org/2000/svg">
<path d="M8.118 16.558C8.734 16.6607 9.26933 16.8953 9.724 17.262C10.1933 17.614 10.5527 18.0687 10.802 18.626C11.0513 19.1687 11.176 19.7847 11.176 20.474C11.176 21.3833 10.9487 22.1753 10.494 22.85C10.054 23.5247 9.42333 24.0453 8.602 24.412C7.78067 24.7933 6.81267 24.984 5.698 24.984C4.58333 24.984 3.60067 24.786 2.75 24.39C1.89933 24.0087 1.21733 23.4513 0.704 22.718L2.178 21.046C2.53 21.574 2.98467 21.992 3.542 22.3C4.09933 22.6227 4.80333 22.784 5.654 22.784C6.60733 22.784 7.348 22.5787 7.876 22.168C8.404 21.7573 8.668 21.1413 8.668 20.32C8.668 19.4693 8.37467 18.802 7.788 18.318C7.216 17.834 6.35067 17.592 5.192 17.592H4.598V15.7H5.258C6.24067 15.7 6.996 15.4727 7.524 15.018C8.052 14.5487 8.316 13.962 8.316 13.258C8.316 12.7887 8.206 12.4073 7.986 12.114C7.78067 11.806 7.48733 11.5787 7.106 11.432C6.72467 11.2853 6.28467 11.212 5.786 11.212C5.038 11.212 4.378 11.3733 3.806 11.696C3.234 12.0187 2.77933 12.4807 2.442 13.082L0.924 11.432C1.21733 10.9627 1.62067 10.552 2.134 10.2C2.64733 9.848 3.234 9.57667 3.894 9.386C4.56867 9.18067 5.28 9.078 6.028 9.078C6.996 9.078 7.84667 9.23933 8.58 9.562C9.31333 9.88467 9.878 10.3393 10.274 10.926C10.6847 11.5127 10.89 12.202 10.89 12.994C10.89 13.566 10.78 14.1087 10.56 14.622C10.34 15.1207 10.0173 15.546 9.592 15.898C9.16667 16.2353 8.67533 16.4553 8.118 16.558ZM24.4602 15.304C24.4602 16.5947 24.2109 17.746 23.7122 18.758C23.2282 19.7553 22.5609 20.54 21.7102 21.112C20.8742 21.684 19.9136 21.97 18.8282 21.97C17.7576 21.97 16.7969 21.684 15.9462 21.112C15.0956 20.54 14.4209 19.7553 13.9222 18.758C13.4382 17.746 13.1962 16.5947 13.1962 15.304C13.1962 14.0133 13.4382 12.8693 13.9222 11.872C14.4209 10.86 15.0956 10.068 15.9462 9.496C16.7969 8.90933 17.7576 8.616 18.8282 8.616C19.9136 8.616 20.8742 8.90933 21.7102 9.496C22.5609 10.068 23.2282 10.86 23.7122 11.872C24.2109 12.8693 24.4602 14.0133 24.4602 15.304ZM21.9962 15.304C21.9962 14.424 21.8642 13.654 21.6002 12.994C21.3362 12.3193 20.9622 11.7987 20.4782 11.432C19.9942 11.0507 19.4442 10.86 18.8282 10.86C18.1976 10.86 17.6402 11.0507 17.1562 11.432C16.6722 11.7987 16.2909 12.3193 16.0122 12.994C15.7482 13.654 15.6162 14.424 15.6162 15.304C15.6162 16.184 15.7482 16.954 16.0122 17.614C16.2909 18.274 16.6722 18.7947 17.1562 19.176C17.6402 19.5427 18.1976 19.726 18.8282 19.726C19.4442 19.726 19.9869 19.5427 20.4562 19.176C20.9402 18.7947 21.3142 18.274 21.5782 17.614C21.8569 16.954 21.9962 16.184 21.9962 15.304Z" fill="white"/>
<path d="M31.512 20.25V10.638H33.87L37.74 17.46H36.804L40.872 10.638H42.978L42.996 20.25H40.962V13.05L41.322 13.284L37.722 19.242H36.75L33.132 13.122L33.564 13.014V20.25H31.512ZM45.294 14.364V13.356L48.516 10.548C48.912 10.188 49.17 9.906 49.29 9.702C49.422 9.486 49.488 9.282 49.488 9.09C49.488 8.814 49.362 8.586 49.11 8.406C48.87 8.214 48.48 8.118 47.94 8.118C47.532 8.118 47.166 8.184 46.842 8.316C46.518 8.448 46.26 8.646 46.068 8.91L44.934 8.1C45.234 7.692 45.648 7.368 46.176 7.128C46.704 6.888 47.334 6.768 48.066 6.768C49.038 6.768 49.788 6.978 50.316 7.398C50.844 7.818 51.108 8.346 51.108 8.982C51.108 9.342 51.018 9.69 50.838 10.026C50.67 10.362 50.298 10.782 49.722 11.286L47.004 13.662L46.626 13.086H51.414V14.364H45.294Z" fill="white"/>
</svg>
