<svg width="58" height="58" viewBox="0 0 58 58" fill="none" xmlns="http://www.w3.org/2000/svg">
<mask id="mask0_582_3228" style="mask-type:alpha" maskUnits="userSpaceOnUse" x="0" y="0" width="58" height="58">
<rect width="58" height="58" fill="#D9D9D9"/>
</mask>
<g mask="url(#mask0_582_3228)">
<path d="M16.3743 33.8932H41.6587C42.2226 33.8932 42.6858 33.7169 43.0483 33.3645C43.4108 33.0121 43.5921 32.5439 43.5921 31.9598V27.2171C43.5921 26.6532 43.4108 26.19 43.0483 25.8275C42.6858 25.465 42.2226 25.2838 41.6587 25.2838H24.8629V14.4088H19.3398C17.9872 14.4088 16.8325 14.8909 15.8759 15.8552C14.9193 16.8195 14.441 17.9786 14.441 19.3327V31.9598C14.441 32.5439 14.6172 33.0121 14.9697 33.3645C15.3221 33.7169 15.7903 33.8932 16.3743 33.8932ZM29.009 45.7348C30.1519 45.7348 31.252 45.6543 32.3092 45.4932C33.3665 45.332 34.4289 45.0887 35.4962 44.7633V35.4338H22.5368V44.7633C23.5841 45.0887 24.6388 45.332 25.7012 45.4932C26.7635 45.6543 27.8661 45.7348 29.009 45.7348ZM29.0014 47.2755C26.2839 47.2755 23.6662 46.8022 21.1482 45.8557C18.6302 44.9091 16.3542 43.5598 14.3202 41.8077L15.4077 40.69C16.2334 41.4352 17.1145 42.0947 18.0509 42.6687C18.9874 43.2426 19.9691 43.7411 20.9962 44.164V35.4338H16.3743C15.3687 35.4338 14.5382 35.1062 13.8831 34.451C13.228 33.7959 12.9004 32.9655 12.9004 31.9598V19.3327C12.9004 17.5618 13.5301 16.0416 14.7894 14.7723C16.0487 13.5029 17.5638 12.8682 19.3348 12.8682H26.4035V23.7432H41.6587C42.643 23.7432 43.4681 24.0761 44.1339 24.7419C44.7998 25.4077 45.1327 26.2328 45.1327 27.2171V31.9598C45.1327 32.9655 44.7998 33.7959 44.1339 34.451C43.4681 35.1062 42.643 35.4338 41.6587 35.4338H37.0368V44.164C38.0438 43.7411 39.0155 43.2426 39.952 42.6687C40.8884 42.0947 41.7695 41.4352 42.5952 40.69L43.7129 41.8077C41.6587 43.5598 39.3726 44.9091 36.8546 45.8557C34.3367 46.8022 31.7189 47.2755 29.0014 47.2755Z" fill="white"/>
</g>
</svg>
