<svg width="53" height="53" viewBox="0 0 53 53" fill="none" xmlns="http://www.w3.org/2000/svg">
<mask id="mask0_582_3225" style="mask-type:alpha" maskUnits="userSpaceOnUse" x="0" y="0" width="53" height="53">
<rect width="53" height="53" fill="#D9D9D9"/>
</mask>
<g mask="url(#mask0_582_3225)">
<path d="M28.0745 24.6508C28.7738 23.8963 29.2569 23.0176 29.5237 22.0146C29.7905 21.0117 29.924 19.9857 29.924 18.9368C29.924 17.8878 29.7951 16.8619 29.5375 15.8589C29.2799 14.856 28.7922 13.9772 28.0745 13.2227C29.5283 13.3331 30.7291 13.9404 31.6768 15.0446C32.6246 16.1488 33.0984 17.4462 33.0984 18.9368C33.0984 20.4274 32.6246 21.7248 31.6768 22.829C30.7291 23.9331 29.5283 24.5404 28.0745 24.6508ZM38.7849 39.8331V37.1279C38.7849 36.1506 38.6239 35.2208 38.3018 34.3384C37.9798 33.4561 37.4323 32.7481 36.6594 32.2144C38.0112 32.5972 39.2325 33.1851 40.3232 33.9783C41.414 34.7715 41.9594 35.8242 41.9594 37.1367V39.8331H38.7849ZM41.9594 27.1904V22.8014H37.5703V21.3936H41.9594V17.0045H43.3672V21.3936H47.7563V22.8014H43.3672V27.1904H41.9594ZM19.807 24.7613C18.1949 24.7613 16.8235 24.1912 15.6926 23.0512C14.5618 21.9111 13.9964 20.5397 13.9964 18.9368C13.9964 17.3339 14.5615 15.9624 15.6917 14.8224C16.822 13.6823 18.1984 13.1123 19.8208 13.1123C21.4237 13.1123 22.7952 13.6823 23.9352 14.8224C25.0753 15.9624 25.6453 17.3339 25.6453 18.9368C25.6453 20.5397 25.0753 21.9111 23.9352 23.0512C22.7952 24.1912 21.4191 24.7613 19.807 24.7613ZM5.27344 39.8331V37.1279C5.27344 36.3314 5.5131 35.5874 5.99242 34.8959C6.47177 34.2044 7.13425 33.66 7.97986 33.2627C9.96655 32.3246 11.951 31.6163 13.9333 31.1378C15.9155 30.6594 17.8754 30.4201 19.813 30.4201C21.7505 30.4201 23.7084 30.6594 25.6867 31.1378C27.665 31.6163 29.6538 32.3278 31.653 33.2723C32.4878 33.6712 33.149 34.2151 33.6367 34.9041C34.1244 35.5931 34.3682 36.3344 34.3682 37.1279V39.8331H5.27344ZM19.8208 23.3535C21.0354 23.3535 22.0752 22.921 22.9401 22.0561C23.805 21.1911 24.2375 20.1514 24.2375 18.9368C24.2375 17.7222 23.805 16.6824 22.9401 15.8175C22.0752 14.9526 21.0354 14.5201 19.8208 14.5201C18.5878 14.5201 17.5435 14.9526 16.6878 15.8175C15.832 16.6824 15.4042 17.7222 15.4042 18.9368C15.4042 20.1514 15.832 21.1911 16.6878 22.0561C17.5435 22.921 18.5878 23.3535 19.8208 23.3535ZM6.68125 38.4253H32.9604V37.135C32.9604 36.608 32.7856 36.1162 32.4359 35.6597C32.0863 35.2031 31.5894 34.8 30.9453 34.4503C29.1971 33.6038 27.3839 32.9551 25.506 32.5042C23.628 32.0534 21.733 31.8279 19.8208 31.8279C17.9023 31.8279 16.0011 32.0534 14.1171 32.5042C12.2331 32.9551 10.417 33.6038 8.66875 34.4503C8.02465 34.8 7.53238 35.2048 7.19193 35.6649C6.85148 36.125 6.68125 36.6127 6.68125 37.1279V38.4253Z" fill="white"/>
</g>
</svg>
