<svg width="92" height="47" viewBox="0 0 92 47" fill="none" xmlns="http://www.w3.org/2000/svg">
<mask id="mask0_582_3218" style="mask-type:alpha" maskUnits="userSpaceOnUse" x="45" y="0" width="47" height="47">
<rect x="45" width="46.409" height="46.409" fill="#D9D9D9"/>
</mask>
<g mask="url(#mask0_582_3218)">
<path d="M61.1945 39.8099V32.1235H50.0273L57.7863 20.6179H53.9673L62.4031 8.53223L68.2042 16.823L74.0053 8.53223L82.4411 20.6179H78.622L86.381 32.1235H75.2139V39.8099H72.7967V32.1235H63.6116V39.8099H61.1945ZM73.9086 30.8907H84.0364L76.3016 19.3852H80.0481L74.0053 10.756L69.0018 17.9107L70.8389 20.6179H67.0198L73.9086 30.8907ZM52.372 30.8907H72.4342L64.6993 19.3852H68.4459L62.4031 10.756L56.3602 19.3852H60.131L52.372 30.8907ZM52.372 30.8907H60.131H56.3602H68.4459H64.6993H72.4342H52.372ZM73.9086 30.8907H67.0198H70.8389H69.0018H80.0481H76.3016H84.0364H73.9086Z" fill="white"/>
</g>
<mask id="mask1_582_3218" style="mask-type:alpha" maskUnits="userSpaceOnUse" x="0" y="0" width="47" height="47">
<rect width="46.9999" height="46.9999" fill="#D9D9D9"/>
</mask>
<g mask="url(#mask1_582_3218)">
<path d="M5.13477 36.5385V34.8287C5.96076 34.7245 6.67599 34.5265 7.28046 34.2346C7.8849 33.9428 8.49366 33.6457 9.10675 33.3434C9.71983 33.0411 10.3914 32.7737 11.1216 32.5412C11.8517 32.3088 12.7395 32.1925 13.7849 32.1925C14.8497 32.1925 15.7681 32.3294 16.5401 32.6032C17.3122 32.877 18.056 33.1861 18.7715 33.5306C19.487 33.875 20.2109 34.1901 20.9432 34.4757C21.6754 34.7612 22.527 34.904 23.4979 34.904C24.4569 34.904 25.3024 34.7612 26.0343 34.4757C26.7661 34.1901 27.4895 33.8769 28.2044 33.536C28.9193 33.1952 29.6672 32.8861 30.448 32.6087C31.2289 32.3312 32.142 32.1925 33.1873 32.1925C34.2522 32.1925 35.1461 32.3088 35.869 32.5412C36.5919 32.7737 37.2604 33.0411 37.8744 33.3434C38.4884 33.6457 39.1008 33.9428 39.7115 34.2346C40.3222 34.5265 41.0406 34.7245 41.8666 34.8287V36.5385C40.9728 36.4594 40.1954 36.2736 39.5343 35.9811C38.8732 35.6886 38.2236 35.3911 37.5854 35.0886C36.9472 34.786 36.2908 34.5127 35.6163 34.2686C34.9418 34.0244 34.1337 33.9023 33.192 33.9023C32.2703 33.9023 31.4476 34.0392 30.7239 34.313C30.0002 34.5867 29.2828 34.8959 28.5716 35.2403C27.8605 35.5848 27.1079 35.8998 26.3138 36.1854C25.5197 36.471 24.5825 36.6138 23.5024 36.6138C22.4097 36.6138 21.4648 36.471 20.6677 36.1854C19.8706 35.8998 19.1151 35.5866 18.4014 35.2458C17.6877 34.905 16.9758 34.5959 16.2658 34.3184C15.5557 34.041 14.7314 33.9023 13.7928 33.9023C12.874 33.9023 12.0703 34.0253 11.3817 34.2713C10.6931 34.5174 10.03 34.792 9.39222 35.0952C8.75452 35.3984 8.1018 35.6959 7.43404 35.9877C6.76628 36.2796 5.99986 36.4632 5.13477 36.5385ZM5.13477 29.2456V27.5358C5.96076 27.448 6.67514 27.2578 7.27791 26.9653C7.88065 26.6728 8.48824 26.3753 9.10068 26.0727C9.71308 25.7702 10.3855 25.499 11.118 25.2593C11.8505 25.0195 12.7395 24.8996 13.7849 24.8996C14.8497 24.8996 15.7681 25.0415 16.5401 25.3252C17.3122 25.6089 18.056 25.9221 18.7715 26.2648C19.487 26.6075 20.2109 26.9216 20.9432 27.2072C21.6754 27.4928 22.527 27.6356 23.4979 27.6356C24.4569 27.6356 25.3024 27.4928 26.0343 27.2072C26.7661 26.9216 27.4895 26.6084 28.2044 26.2676C28.9193 25.9268 29.6672 25.6167 30.448 25.3374C31.2289 25.0581 32.142 24.9122 33.1873 24.8996C34.2522 24.9122 35.1461 25.0333 35.869 25.2632C36.5919 25.4931 37.2604 25.7614 37.8744 26.0682C38.4884 26.375 39.1008 26.6743 39.7115 26.9662C40.3222 27.2581 41.0406 27.448 41.8666 27.5358V29.2456C40.9728 29.1703 40.1931 28.9895 39.5276 28.7033C38.862 28.4171 38.2114 28.1227 37.5758 27.8202C36.9402 27.5176 36.2854 27.2433 35.6112 26.9973C34.937 26.7512 34.1339 26.622 33.2019 26.6094C32.2824 26.622 31.4608 26.7679 30.7371 27.0472C30.0134 27.3265 29.2924 27.6362 28.5742 27.9764C27.8559 28.3166 27.0996 28.6299 26.3051 28.9161C25.5107 29.2023 24.5734 29.3454 23.4933 29.3454C22.4006 29.3454 21.4572 29.2026 20.6631 28.917C19.869 28.6314 19.1151 28.3173 18.4014 27.9746C17.6877 27.6319 16.9758 27.3187 16.2658 27.035C15.5557 26.7512 14.7314 26.6094 13.7928 26.6094C12.874 26.6094 12.0703 26.7356 11.3817 26.9879C10.6931 27.2402 10.03 27.518 9.39222 27.8211C8.75452 28.1243 8.1018 28.4187 7.43404 28.7043C6.76628 28.9898 5.99986 29.1703 5.13477 29.2456ZM5.13477 21.9772V20.2674C5.96076 20.1795 6.67514 19.9893 7.27791 19.6968C7.88065 19.4044 8.48824 19.1068 9.10068 18.8043C9.71308 18.5018 10.3855 18.2306 11.118 17.9908C11.8505 17.7511 12.7395 17.6312 13.7849 17.6312C14.8497 17.6312 15.7681 17.773 16.5401 18.0567C17.3122 18.3405 18.056 18.6537 18.7715 18.9964C19.487 19.3391 20.2109 19.6532 20.9432 19.9388C21.6754 20.2244 22.527 20.3672 23.4979 20.3672C24.4569 20.3672 25.3024 20.2244 26.0343 19.9388C26.7661 19.6532 27.4895 19.34 28.2044 18.9992C28.9193 18.6584 29.6672 18.3483 30.448 18.069C31.2289 17.7897 32.142 17.6437 33.1873 17.6312C34.2522 17.6437 35.1461 17.765 35.869 17.9948C36.5919 18.2246 37.2604 18.493 37.8744 18.7998C38.4884 19.1066 39.1008 19.4059 39.7115 19.6978C40.3222 19.9897 41.0406 20.1795 41.8666 20.2674V21.9772C40.9728 21.9019 40.1954 21.7211 39.5343 21.4349C38.8732 21.1487 38.2236 20.8543 37.5854 20.5517C36.9472 20.2492 36.2908 19.9718 35.6163 19.7194C34.9418 19.4671 34.1337 19.341 33.192 19.341C32.2703 19.341 31.4476 19.4828 30.7239 19.7665C30.0002 20.0502 29.2828 20.3634 28.5716 20.7061C27.8605 21.0489 27.1079 21.363 26.3138 21.6486C25.5197 21.9342 24.5825 22.077 23.5024 22.077C22.4097 22.077 21.4648 21.9342 20.6677 21.6486C19.8706 21.363 19.1151 21.0489 18.4014 20.7061C17.6877 20.3634 16.9758 20.0502 16.2658 19.7665C15.5557 19.4828 14.7314 19.341 13.7928 19.341C12.874 19.341 12.0703 19.4671 11.3817 19.7194C10.6931 19.9718 10.03 20.2495 9.39222 20.5527C8.75452 20.8559 8.1018 21.1502 7.43404 21.4358C6.76628 21.7214 5.99986 21.9019 5.13477 21.9772ZM5.13477 14.7088V12.999C5.96076 12.9111 6.67599 12.7212 7.28046 12.4294C7.8849 12.1375 8.49247 11.84 9.10317 11.5368C9.71391 11.2337 10.3855 10.9622 11.118 10.7224C11.8505 10.4827 12.7395 10.3628 13.7849 10.3628C14.8497 10.3628 15.7681 10.5046 16.5401 10.7883C17.3122 11.072 18.056 11.3852 18.7715 11.7279C19.487 12.0707 20.2109 12.3839 20.9432 12.6676C21.6754 12.9513 22.527 13.0869 23.4979 13.0743C24.4569 13.0869 25.3024 12.9513 26.0343 12.6676C26.7661 12.3839 27.4883 12.0707 28.2008 11.7279C28.9132 11.3852 29.6616 11.072 30.4461 10.7883C31.2306 10.5046 32.1483 10.3628 33.1991 10.3628C34.2601 10.3628 35.1515 10.4808 35.8734 10.717C36.5952 10.9531 37.2627 11.2245 37.8758 11.5313C38.4889 11.8382 39.1008 12.1375 39.7115 12.4294C40.3222 12.7212 41.0406 12.9111 41.8666 12.999V14.7088C40.9728 14.6334 40.1954 14.4527 39.5343 14.1665C38.8732 13.8802 38.2236 13.5859 37.5854 13.2833C36.9472 12.9808 36.2908 12.7034 35.6163 12.4511C34.9418 12.1987 34.1337 12.0726 33.192 12.0726C32.2703 12.0726 31.4476 12.2144 30.7239 12.4981C30.0002 12.7818 29.2828 13.095 28.5716 13.4377C27.8605 13.7804 27.1079 14.0936 26.3138 14.3774C25.5197 14.6611 24.5825 14.7966 23.5024 14.7841C22.4097 14.7966 21.4648 14.6611 20.6677 14.3774C19.8706 14.0936 19.1151 13.7804 18.4014 13.4377C17.6877 13.095 16.9758 12.7818 16.2658 12.4981C15.5557 12.2144 14.7314 12.0726 13.7928 12.0726C12.874 12.0726 12.0703 12.1987 11.3817 12.4511C10.6931 12.7034 10.03 12.9811 9.39222 13.2843C8.75452 13.5874 8.1018 13.8818 7.43404 14.1674C6.76628 14.453 5.99986 14.6334 5.13477 14.7088Z" fill="white"/>
</g>
</svg>
