<svg width="53" height="28" viewBox="0 0 53 28" fill="none" xmlns="http://www.w3.org/2000/svg">
<path d="M8.118 16.558C8.734 16.6607 9.26933 16.8953 9.724 17.262C10.1933 17.614 10.5527 18.0687 10.802 18.626C11.0513 19.1687 11.176 19.7847 11.176 20.474C11.176 21.3833 10.9487 22.1753 10.494 22.85C10.054 23.5247 9.42333 24.0453 8.602 24.412C7.78067 24.7933 6.81267 24.984 5.698 24.984C4.58333 24.984 3.60067 24.786 2.75 24.39C1.89933 24.0087 1.21733 23.4513 0.704 22.718L2.178 21.046C2.53 21.574 2.98467 21.992 3.542 22.3C4.09933 22.6227 4.80333 22.784 5.654 22.784C6.60733 22.784 7.348 22.5787 7.876 22.168C8.404 21.7573 8.668 21.1413 8.668 20.32C8.668 19.4693 8.37467 18.802 7.788 18.318C7.216 17.834 6.35067 17.592 5.192 17.592H4.598V15.7H5.258C6.24067 15.7 6.996 15.4727 7.524 15.018C8.052 14.5487 8.316 13.962 8.316 13.258C8.316 12.7887 8.206 12.4073 7.986 12.114C7.78067 11.806 7.48733 11.5787 7.106 11.432C6.72467 11.2853 6.28467 11.212 5.786 11.212C5.038 11.212 4.378 11.3733 3.806 11.696C3.234 12.0187 2.77933 12.4807 2.442 13.082L0.924 11.432C1.21733 10.9627 1.62067 10.552 2.134 10.2C2.64733 9.848 3.234 9.57667 3.894 9.386C4.56867 9.18067 5.28 9.078 6.028 9.078C6.996 9.078 7.84667 9.23933 8.58 9.562C9.31333 9.88467 9.878 10.3393 10.274 10.926C10.6847 11.5127 10.89 12.202 10.89 12.994C10.89 13.566 10.78 14.1087 10.56 14.622C10.34 15.1207 10.0173 15.546 9.592 15.898C9.16667 16.2353 8.67533 16.4553 8.118 16.558ZM24.2622 17.24C24.2622 18.1787 24.0056 19 23.4922 19.704C22.9936 20.408 22.3116 20.958 21.4462 21.354C20.5956 21.7353 19.6642 21.926 18.6522 21.926C17.6109 21.926 16.6722 21.7207 15.8362 21.31C15.0002 20.8847 14.3329 20.3127 13.8342 19.594C13.3356 18.8753 13.0862 18.054 13.0862 17.13C13.0862 16.514 13.2256 15.964 13.5042 15.48C13.7829 14.9813 14.1276 14.556 14.5382 14.204C14.9489 13.852 15.3669 13.5807 15.7922 13.39C15.3962 13.1993 15.0296 12.9573 14.6922 12.664C14.3696 12.356 14.1056 12.004 13.9002 11.608C13.7096 11.212 13.6142 10.7867 13.6142 10.332C13.6142 9.65733 13.7609 9.06333 14.0542 8.55C14.3622 8.022 14.7656 7.582 15.2642 7.23C15.7629 6.86333 16.3056 6.592 16.8922 6.416C17.4936 6.22533 18.0876 6.13 18.6742 6.13C19.2756 6.13 19.8696 6.22533 20.4562 6.416C21.0576 6.592 21.6076 6.856 22.1062 7.208C22.6196 7.56 23.0229 8 23.3162 8.528C23.6242 9.04133 23.7782 9.63533 23.7782 10.31C23.7782 10.7647 23.6756 11.1973 23.4702 11.608C23.2796 12.004 23.0082 12.356 22.6562 12.664C22.3189 12.972 21.9522 13.214 21.5562 13.39C22.0256 13.5953 22.4656 13.8813 22.8762 14.248C23.3016 14.6147 23.6389 15.0473 23.8882 15.546C24.1376 16.0447 24.2622 16.6093 24.2622 17.24ZM21.8202 17.086C21.8202 16.6607 21.7249 16.2793 21.5342 15.942C21.3582 15.6047 21.1162 15.326 20.8082 15.106C20.5002 14.8713 20.1629 14.6953 19.7962 14.578C19.4296 14.4607 19.0556 14.402 18.6742 14.402C18.1316 14.402 17.6256 14.512 17.1562 14.732C16.6869 14.952 16.3056 15.2673 16.0122 15.678C15.7189 16.074 15.5722 16.5433 15.5722 17.086C15.5722 17.4967 15.6602 17.8707 15.8362 18.208C16.0122 18.5307 16.2469 18.8093 16.5402 19.044C16.8482 19.2787 17.1856 19.4547 17.5522 19.572C17.9336 19.6893 18.3149 19.748 18.6962 19.748C19.2242 19.748 19.7229 19.638 20.1922 19.418C20.6762 19.1833 21.0649 18.868 21.3582 18.472C21.6662 18.0613 21.8202 17.5993 21.8202 17.086ZM16.0562 10.42C16.0562 10.8747 16.1882 11.2633 16.4522 11.586C16.7162 11.9087 17.0536 12.1507 17.4642 12.312C17.8749 12.4733 18.2782 12.554 18.6742 12.554C19.0849 12.554 19.4882 12.4733 19.8842 12.312C20.2949 12.136 20.6322 11.8867 20.8962 11.564C21.1749 11.2413 21.3142 10.8453 21.3142 10.376C21.3142 9.95067 21.1896 9.584 20.9402 9.276C20.6909 8.95333 20.3609 8.71133 19.9502 8.55C19.5542 8.374 19.1289 8.286 18.6742 8.286C18.2196 8.286 17.7869 8.374 17.3762 8.55C16.9802 8.726 16.6576 8.97533 16.4082 9.298C16.1736 9.606 16.0562 9.98 16.0562 10.42Z" fill="white"/>
<path d="M31.512 20.25V10.638H33.87L37.74 17.46H36.804L40.872 10.638H42.978L42.996 20.25H40.962V13.05L41.322 13.284L37.722 19.242H36.75L33.132 13.122L33.564 13.014V20.25H31.512ZM45.294 14.364V13.356L48.516 10.548C48.912 10.188 49.17 9.906 49.29 9.702C49.422 9.486 49.488 9.282 49.488 9.09C49.488 8.814 49.362 8.586 49.11 8.406C48.87 8.214 48.48 8.118 47.94 8.118C47.532 8.118 47.166 8.184 46.842 8.316C46.518 8.448 46.26 8.646 46.068 8.91L44.934 8.1C45.234 7.692 45.648 7.368 46.176 7.128C46.704 6.888 47.334 6.768 48.066 6.768C49.038 6.768 49.788 6.978 50.316 7.398C50.844 7.818 51.108 8.346 51.108 8.982C51.108 9.342 51.018 9.69 50.838 10.026C50.67 10.362 50.298 10.782 49.722 11.286L47.004 13.662L46.626 13.086H51.414V14.364H45.294Z" fill="white"/>
</svg>
