<svg width="53" height="28" viewBox="0 0 53 28" fill="none" xmlns="http://www.w3.org/2000/svg">
<path d="M8.184 11.146H0.616V8.924H12.012L4.202 24.544H1.452L8.184 11.146ZM17.516 25.028C16.3866 25.028 15.3746 24.7713 14.48 24.258C13.5853 23.7593 12.9033 23.0773 12.434 22.212L13.886 20.826C14.2966 21.4567 14.8246 21.9553 15.47 22.322C16.1153 22.7033 16.8046 22.894 17.538 22.894C18.1393 22.894 18.6746 22.762 19.144 22.498C19.6133 22.2487 19.98 21.8967 20.244 21.442C20.5226 20.9727 20.662 20.4373 20.662 19.836C20.662 19.2493 20.53 18.736 20.266 18.296C20.002 17.8413 19.65 17.4967 19.21 17.262C18.77 17.0127 18.264 16.888 17.692 16.888C17.1346 16.888 16.614 17.0127 16.13 17.262C15.646 17.5113 15.25 17.8633 14.942 18.318H12.808L14.59 9.188H22.224V11.41H16.35L15.558 15.678C15.8073 15.414 16.1446 15.2013 16.57 15.04C16.9953 14.864 17.4793 14.776 18.022 14.776C19.0046 14.776 19.8773 14.996 20.64 15.436C21.4173 15.8613 22.026 16.448 22.466 17.196C22.9206 17.944 23.148 18.8093 23.148 19.792C23.148 20.8333 22.8986 21.7427 22.4 22.52C21.9013 23.312 21.2266 23.928 20.376 24.368C19.5253 24.808 18.572 25.028 17.516 25.028Z" fill="white"/>
<path d="M31.512 20.25V10.638H33.87L37.74 17.46H36.804L40.872 10.638H42.978L42.996 20.25H40.962V13.05L41.322 13.284L37.722 19.242H36.75L33.132 13.122L33.564 13.014V20.25H31.512ZM45.294 14.364V13.356L48.516 10.548C48.912 10.188 49.17 9.906 49.29 9.702C49.422 9.486 49.488 9.282 49.488 9.09C49.488 8.814 49.362 8.586 49.11 8.406C48.87 8.214 48.48 8.118 47.94 8.118C47.532 8.118 47.166 8.184 46.842 8.316C46.518 8.448 46.26 8.646 46.068 8.91L44.934 8.1C45.234 7.692 45.648 7.368 46.176 7.128C46.704 6.888 47.334 6.768 48.066 6.768C49.038 6.768 49.788 6.978 50.316 7.398C50.844 7.818 51.108 8.346 51.108 8.982C51.108 9.342 51.018 9.69 50.838 10.026C50.67 10.362 50.298 10.782 49.722 11.286L47.004 13.662L46.626 13.086H51.414V14.364H45.294Z" fill="white"/>
</svg>
