<svg width="53" height="28" viewBox="0 0 53 28" fill="none" xmlns="http://www.w3.org/2000/svg">
<path d="M5.764 25.028C4.63467 25.028 3.62267 24.7713 2.728 24.258C1.83333 23.7593 1.15133 23.0773 0.682 22.212L2.134 20.826C2.54467 21.4567 3.07267 21.9553 3.718 22.322C4.36333 22.7033 5.05267 22.894 5.786 22.894C6.38733 22.894 6.92267 22.762 7.392 22.498C7.86133 22.2487 8.228 21.8967 8.492 21.442C8.77067 20.9727 8.91 20.4373 8.91 19.836C8.91 19.2493 8.778 18.736 8.514 18.296C8.25 17.8413 7.898 17.4967 7.458 17.262C7.018 17.0127 6.512 16.888 5.94 16.888C5.38267 16.888 4.862 17.0127 4.378 17.262C3.894 17.5113 3.498 17.8633 3.19 18.318H1.056L2.838 9.188H10.472V11.41H4.598L3.806 15.678C4.05533 15.414 4.39267 15.2013 4.818 15.04C5.24333 14.864 5.72733 14.776 6.27 14.776C7.25267 14.776 8.12533 14.996 8.888 15.436C9.66533 15.8613 10.274 16.448 10.714 17.196C11.1687 17.944 11.396 18.8093 11.396 19.792C11.396 20.8333 11.1467 21.7427 10.648 22.52C10.1493 23.312 9.47467 23.928 8.624 24.368C7.77333 24.808 6.82 25.028 5.764 25.028ZM24.5032 15.304C24.5032 16.5947 24.2539 17.746 23.7552 18.758C23.2712 19.7553 22.6039 20.54 21.7532 21.112C20.9172 21.684 19.9565 21.97 18.8712 21.97C17.8005 21.97 16.8399 21.684 15.9892 21.112C15.1385 20.54 14.4639 19.7553 13.9652 18.758C13.4812 17.746 13.2392 16.5947 13.2392 15.304C13.2392 14.0133 13.4812 12.8693 13.9652 11.872C14.4639 10.86 15.1385 10.068 15.9892 9.496C16.8399 8.90933 17.8005 8.616 18.8712 8.616C19.9565 8.616 20.9172 8.90933 21.7532 9.496C22.6039 10.068 23.2712 10.86 23.7552 11.872C24.2539 12.8693 24.5032 14.0133 24.5032 15.304ZM22.0392 15.304C22.0392 14.424 21.9072 13.654 21.6432 12.994C21.3792 12.3193 21.0052 11.7987 20.5212 11.432C20.0372 11.0507 19.4872 10.86 18.8712 10.86C18.2405 10.86 17.6832 11.0507 17.1992 11.432C16.7152 11.7987 16.3339 12.3193 16.0552 12.994C15.7912 13.654 15.6592 14.424 15.6592 15.304C15.6592 16.184 15.7912 16.954 16.0552 17.614C16.3339 18.274 16.7152 18.7947 17.1992 19.176C17.6832 19.5427 18.2405 19.726 18.8712 19.726C19.4872 19.726 20.0299 19.5427 20.4992 19.176C20.9832 18.7947 21.3572 18.274 21.6212 17.614C21.8999 16.954 22.0392 16.184 22.0392 15.304Z" fill="white"/>
<path d="M31.512 20.25V10.638H33.87L37.74 17.46H36.804L40.872 10.638H42.978L42.996 20.25H40.962V13.05L41.322 13.284L37.722 19.242H36.75L33.132 13.122L33.564 13.014V20.25H31.512ZM45.294 14.364V13.356L48.516 10.548C48.912 10.188 49.17 9.906 49.29 9.702C49.422 9.486 49.488 9.282 49.488 9.09C49.488 8.814 49.362 8.586 49.11 8.406C48.87 8.214 48.48 8.118 47.94 8.118C47.532 8.118 47.166 8.184 46.842 8.316C46.518 8.448 46.26 8.646 46.068 8.91L44.934 8.1C45.234 7.692 45.648 7.368 46.176 7.128C46.704 6.888 47.334 6.768 48.066 6.768C49.038 6.768 49.788 6.978 50.316 7.398C50.844 7.818 51.108 8.346 51.108 8.982C51.108 9.342 51.018 9.69 50.838 10.026C50.67 10.362 50.298 10.782 49.722 11.286L47.004 13.662L46.626 13.086H51.414V14.364H45.294Z" fill="white"/>
</svg>
